<?xml version="1.0" standalone="no"?>
<!DOCTYPE svg PUBLIC "-//W3C//DTD SVG 20010904//EN"
 "http://www.w3.org/TR/2001/REC-SVG-20010904/DTD/svg10.dtd">
<svg version="1.0" xmlns="http://www.w3.org/2000/svg"
 width="936.000000pt" height="936.000000pt" viewBox="0 0 936.000000 936.000000"
 preserveAspectRatio="xMidYMid meet">
<metadata>
Created by potrace 1.14, written by Peter Selinger 2001-2017
</metadata>
<g transform="translate(0.000000,936.000000) scale(0.100000,-0.100000)"
fill="#000000" stroke="none">
<path d="M3330 7512 c0 -6 -18 -9 -47 -6 -30 2 -50 -1 -55 -9 -6 -9 -8 -9 -8
0 0 12 -39 11 -72 -2 -10 -4 -18 -3 -18 2 0 10 -29 11 -45 1 -6 -3 -20 -4 -32
-3 -13 1 -23 -2 -23 -7 0 -5 -5 -6 -11 -2 -6 3 -15 1 -19 -5 -5 -9 -11 -9 -23
3 -14 14 -16 14 -21 0 -4 -9 -13 -14 -21 -10 -8 3 -15 0 -15 -7 0 -8 -3 -8 -9
2 -7 11 -11 10 -20 -5 -6 -12 -11 -14 -11 -6 0 10 -9 8 -36 -7 -19 -12 -32
-17 -29 -11 3 6 -1 7 -9 4 -9 -3 -16 -10 -16 -14 0 -5 -9 -7 -20 -5 -11 2 -20
0 -20 -6 0 -5 -7 -9 -15 -9 -17 0 -56 -20 -66 -34 -4 -5 -12 -5 -18 -2 -6 4
-11 2 -11 -5 0 -7 -3 -10 -6 -6 -3 3 -14 -2 -25 -11 -11 -9 -22 -16 -25 -14
-3 2 -14 -6 -24 -18 -10 -12 -21 -20 -24 -18 -3 2 -14 -5 -25 -14 -11 -9 -22
-14 -25 -11 -3 4 -6 1 -6 -5 0 -7 -5 -12 -11 -12 -6 0 -31 -21 -57 -47 -25
-27 -39 -39 -31 -29 13 18 13 18 -8 6 -12 -8 -20 -16 -19 -20 5 -8 -32 -39
-39 -32 -3 4 -3 -2 1 -12 5 -13 4 -17 -4 -12 -6 3 -13 -3 -17 -14 -3 -11 -17
-28 -31 -39 -13 -10 -24 -23 -24 -29 0 -5 -7 -12 -15 -16 -8 -3 -15 -15 -15
-26 0 -12 -3 -19 -7 -17 -9 6 -27 -13 -31 -32 -1 -7 -9 -20 -17 -28 -8 -8 -18
-25 -21 -39 -3 -13 -10 -24 -15 -24 -5 0 -9 -3 -8 -7 2 -16 -14 -53 -22 -53
-5 0 -9 -6 -9 -14 0 -7 -7 -19 -15 -26 -8 -7 -12 -16 -9 -21 3 -5 0 -9 -6 -9
-6 0 -9 -4 -6 -9 3 -4 -2 -17 -10 -27 -9 -10 -12 -13 -8 -5 5 10 3 12 -5 7 -9
-6 -9 -11 0 -22 9 -11 8 -15 -5 -20 -14 -5 -14 -9 -4 -22 7 -9 9 -13 3 -10
-10 6 -28 -9 -34 -27 -11 -34 -21 -54 -31 -60 -5 -3 -8 -11 -4 -16 3 -5 0 -16
-6 -24 -6 -8 -9 -19 -5 -25 4 -6 1 -9 -7 -8 -7 2 -12 -3 -10 -9 1 -7 -3 -13
-9 -13 -5 0 -7 -4 -4 -10 3 -5 1 -10 -4 -10 -6 0 -11 -7 -11 -15 0 -8 -4 -15
-8 -15 -4 0 -8 -10 -9 -21 -1 -12 -7 -27 -14 -33 -9 -8 -10 -7 -4 3 5 9 4 12
-3 7 -6 -4 -9 -13 -5 -21 3 -8 0 -15 -7 -15 -6 0 -8 -5 -5 -10 3 -6 0 -13 -9
-16 -8 -3 -12 -12 -9 -20 3 -8 0 -14 -7 -14 -6 0 -9 -4 -5 -9 3 -5 1 -12 -5
-16 -5 -3 -10 -15 -10 -26 0 -11 -5 -17 -10 -14 -6 3 -10 -1 -10 -9 0 -9 -4
-16 -8 -16 -5 0 -9 -7 -10 -15 -1 -8 -3 -22 -4 -30 -1 -8 -6 -15 -11 -15 -5 0
-7 -6 -4 -14 3 -8 -1 -17 -9 -20 -8 -3 -14 -10 -14 -17 0 -6 -9 -24 -21 -40
-11 -16 -17 -29 -13 -29 3 0 1 -6 -5 -13 -6 -8 -8 -17 -4 -20 3 -4 3 -7 -1 -7
-10 0 -30 23 -34 38 -1 6 3 12 10 12 7 0 5 7 -5 18 -9 10 -15 28 -12 40 2 12
-1 22 -6 22 -6 0 -7 5 -4 10 4 6 1 17 -5 25 -9 10 -9 15 -1 15 7 0 8 8 1 25
-5 14 -7 25 -4 25 4 0 1 7 -6 15 -6 8 -9 19 -5 25 3 5 1 10 -5 10 -6 0 -8 5
-5 10 3 6 1 10 -4 10 -6 0 -11 8 -11 17 0 17 -90 110 -103 105 -4 -1 -10 5
-13 13 -3 8 -10 12 -15 9 -5 -3 -9 -1 -9 4 0 8 -14 12 -53 13 -9 0 -15 4 -12
9 3 4 -10 7 -27 6 -18 -1 -39 3 -47 9 -9 6 -13 6 -9 0 4 -6 -18 -10 -57 -10
-35 0 -61 3 -59 7 3 4 -1 5 -8 3 -28 -11 -88 -11 -88 -1 0 7 -3 8 -8 1 -8 -12
-84 -16 -77 -4 3 4 -7 4 -22 0 -14 -4 -48 -4 -74 -1 -26 4 -46 3 -44 0 3 -4
-8 -8 -23 -8 -59 -2 -114 -15 -119 -27 -2 -8 -13 -12 -24 -10 -11 2 -23 -4
-29 -16 -6 -11 -15 -17 -20 -14 -5 3 -15 -3 -22 -13 -13 -19 -18 -22 -38 -22
-6 0 -9 -6 -8 -12 2 -7 -3 -12 -10 -10 -7 1 -15 -5 -18 -13 -3 -8 -10 -12 -15
-9 -5 3 -9 2 -8 -3 3 -19 -2 -34 -10 -29 -8 6 -25 -30 -22 -47 1 -5 -3 -6 -8
-3 -5 4 -12 -3 -16 -14 -4 -11 -11 -17 -17 -14 -6 4 -8 2 -4 -4 3 -6 2 -13 -3
-16 -9 -6 -26 -73 -22 -93 1 -7 -2 -13 -7 -13 -11 0 -9 -53 3 -62 6 -5 6 -8
-2 -8 -14 0 -13 -40 2 -40 5 0 4 -4 -4 -9 -9 -6 -10 -11 -2 -15 6 -4 11 -19
11 -34 0 -16 3 -22 8 -15 5 8 12 2 21 -18 7 -17 15 -28 18 -25 8 7 33 -20 33
-36 0 -10 3 -9 10 2 5 8 10 10 10 4 0 -14 30 -25 83 -31 23 -3 37 0 37 7 0 6
5 8 10 5 6 -4 7 -12 3 -18 -5 -9 -3 -9 8 -1 16 12 68 13 86 1 6 -4 19 0 27 9
9 8 16 11 16 6 0 -5 24 -8 52 -8 29 1 56 -3 60 -9 5 -6 8 -5 8 3 0 6 7 12 16
12 9 0 12 -5 8 -12 -5 -10 -4 -10 5 -2 7 6 30 9 53 7 27 -4 43 -1 49 8 5 9 9
9 9 3 0 -7 9 -14 21 -17 17 -5 18 -3 7 10 -12 15 -11 15 10 4 25 -13 194 -22
186 -9 -3 4 2 5 10 2 9 -3 13 -11 9 -18 -5 -7 -2 -7 8 1 9 7 39 11 76 9 34 -1
60 1 57 6 -3 4 2 5 10 2 9 -3 13 -11 9 -18 -4 -6 1 -5 10 2 9 8 22 12 29 9 7
-2 26 0 41 4 26 7 27 6 15 -8 -9 -12 -9 -15 -1 -9 58 34 71 -5 17 -52 -20 -18
-33 -32 -30 -32 4 0 1 -6 -6 -14 -7 -8 -16 -12 -20 -9 -5 2 -8 -3 -8 -11 0 -8
-9 -20 -21 -26 -11 -7 -19 -14 -16 -16 7 -7 -67 -81 -75 -77 -4 2 -5 -4 -1
-13 4 -11 3 -15 -5 -10 -6 3 -13 -3 -17 -14 -4 -11 -9 -19 -13 -17 -4 1 -26
-17 -48 -40 -23 -24 -40 -43 -38 -43 2 0 -6 -11 -18 -25 -11 -13 -26 -22 -31
-18 -6 3 -7 1 -3 -5 4 -6 -2 -17 -14 -24 -11 -7 -20 -16 -20 -21 0 -4 -15 -23
-34 -42 -19 -18 -31 -36 -28 -40 3 -3 -4 -8 -16 -12 -12 -3 -22 -12 -22 -19 0
-8 -7 -17 -15 -20 -8 -4 -12 -10 -9 -15 3 -5 -2 -9 -10 -9 -8 0 -23 -13 -32
-29 -10 -17 -21 -28 -26 -25 -5 3 -7 1 -6 -5 2 -5 -21 -33 -51 -61 -30 -27
-50 -50 -45 -50 4 0 -8 -11 -27 -25 -19 -14 -33 -28 -31 -30 6 -13 1 -25 -10
-22 -7 1 -12 -4 -11 -10 2 -7 -2 -13 -8 -13 -5 0 -7 -5 -4 -10 3 -6 -1 -13 -9
-16 -9 -3 -13 -10 -10 -15 3 -5 0 -9 -6 -9 -6 0 -8 -4 -5 -10 3 -5 1 -10 -5
-10 -6 0 -9 -4 -5 -9 3 -5 1 -12 -5 -16 -6 -4 -8 -11 -5 -16 4 -5 2 -9 -4 -9
-6 0 -8 -7 -5 -15 4 -8 1 -15 -6 -15 -7 0 -9 -8 -5 -20 4 -13 2 -20 -7 -20
-10 0 -9 -3 2 -10 8 -5 10 -10 4 -10 -5 0 -9 -18 -8 -40 1 -22 -3 -40 -9 -40
-5 0 -3 -8 4 -17 12 -15 12 -16 -1 -8 -12 7 -13 6 -5 -6 12 -16 13 -79 1 -97
-4 -6 -2 -12 3 -12 12 0 10 -27 -2 -47 -5 -7 -4 -13 0 -13 5 0 9 -9 10 -20 1
-11 -2 -18 -6 -16 -10 6 -8 -25 3 -42 4 -7 2 -19 -4 -27 -9 -11 -9 -15 -1 -15
14 0 11 -32 -4 -42 -6 -5 -5 -8 4 -8 11 0 11 -3 1 -15 -7 -8 -8 -15 -3 -15 5
0 9 -9 10 -20 1 -13 -2 -18 -10 -13 -9 5 -9 3 0 -8 10 -12 10 -18 1 -27 -9 -9
-9 -12 0 -12 15 0 12 -31 -3 -42 -6 -5 -5 -8 4 -8 11 0 11 -3 1 -15 -7 -8 -8
-15 -3 -15 5 0 9 -9 10 -20 1 -13 -2 -18 -10 -13 -9 5 -9 3 0 -8 10 -12 10
-18 1 -27 -9 -9 -9 -12 0 -12 15 0 12 -31 -3 -42 -6 -5 -5 -8 4 -8 11 0 11 -3
1 -15 -7 -8 -8 -15 -3 -15 5 0 9 -9 10 -20 1 -13 -2 -18 -10 -13 -9 5 -9 3 0
-8 10 -12 10 -18 1 -27 -9 -9 -9 -12 0 -12 15 0 12 -31 -3 -42 -6 -5 -5 -8 4
-8 11 0 11 -3 1 -15 -7 -8 -8 -15 -3 -15 5 0 9 -9 10 -20 1 -11 -2 -18 -8 -15
-5 4 -6 -3 -1 -17 9 -29 9 -59 -1 -76 -5 -6 -4 -12 2 -12 12 0 10 -27 -2 -47
-5 -7 -4 -13 0 -13 5 0 9 -9 10 -20 1 -11 -2 -18 -6 -16 -6 4 -7 -28 -1 -44 6
-16 4 -77 -4 -87 -5 -8 -4 -13 3 -13 12 0 10 -27 -2 -47 -5 -7 -4 -13 0 -13 5
0 9 -9 10 -20 1 -11 -2 -18 -6 -16 -4 3 -6 -5 -5 -17 1 -12 3 -22 4 -22 1 0 3
-25 4 -55 1 -31 5 -61 10 -68 4 -7 2 -12 -6 -12 -10 0 -10 -2 1 -9 8 -6 9 -10
2 -12 -7 -3 -6 -13 4 -32 8 -15 9 -25 4 -21 -6 4 -3 -5 6 -19 9 -15 14 -31 10
-37 -3 -5 -2 -10 2 -10 5 0 14 -9 21 -21 11 -17 11 -20 0 -14 -7 4 -2 -3 12
-15 14 -12 18 -18 11 -14 -9 4 -5 -6 8 -24 12 -18 27 -32 33 -32 6 0 8 -3 5
-7 -4 -3 1 -12 11 -20 9 -8 11 -11 3 -7 -9 5 -12 3 -7 -4 4 -7 13 -12 21 -12
7 0 16 -9 20 -19 4 -13 12 -18 22 -14 10 4 14 2 10 -4 -6 -10 28 -45 36 -36 3
3 11 -4 18 -15 7 -12 19 -17 31 -14 10 2 18 0 18 -5 0 -12 45 -33 71 -33 11 0
18 -4 14 -9 -3 -6 4 -8 15 -6 11 2 20 1 20 -3 0 -10 142 -8 159 2 10 6 12 5 7
-2 -9 -15 -1 -15 24 -2 16 9 18 8 13 -6 -5 -13 -3 -15 8 -8 21 14 209 14 209
0 0 -6 4 -5 9 3 5 8 16 11 24 8 8 -3 20 0 27 6 10 9 11 9 6 0 -9 -16 -1 -16
24 -3 16 9 18 8 13 -6 -5 -13 -3 -15 8 -8 21 14 209 14 209 0 0 -8 3 -8 8 0
10 15 194 15 185 0 -5 -8 -3 -8 8 0 9 7 69 11 169 10 96 -1 161 2 169 8 11 8
13 8 7 -2 -9 -15 -1 -15 24 -2 16 9 18 8 13 -6 -5 -13 -3 -15 8 -8 21 14 169
14 169 0 0 -8 3 -8 8 0 9 14 394 15 385 1 -4 -6 -1 -7 8 -1 8 5 48 9 89 10 42
0 82 4 89 9 10 5 12 4 7 -3 -9 -15 -1 -15 24 -2 16 9 18 8 13 -6 -5 -13 -3
-15 8 -8 21 14 169 14 169 0 0 -8 3 -8 8 1 4 6 23 10 42 9 19 -1 41 3 49 9 11
7 13 7 7 -3 -9 -15 -1 -15 24 -2 16 9 18 8 13 -6 -5 -13 -3 -15 8 -8 21 13
163 13 171 0 6 -8 8 -8 8 0 0 8 37 11 118 9 71 -1 123 3 131 9 11 8 13 8 7 -1
-9 -16 -1 -16 24 -3 16 9 18 8 13 -6 -5 -13 -3 -15 8 -8 21 13 163 13 171 0 5
-8 8 -8 8 0 0 7 62 10 198 9 126 -1 202 3 211 9 11 8 13 8 7 -1 -9 -16 -1 -16
24 -3 16 9 18 8 13 -6 -5 -13 -3 -15 8 -8 21 13 163 13 171 0 5 -8 8 -8 8 0 0
7 62 10 198 9 126 -1 202 3 211 9 11 8 13 8 7 -1 -9 -16 -1 -16 24 -3 16 9 18
8 13 -6 -5 -13 -3 -15 8 -8 21 13 163 13 171 0 5 -8 8 -8 8 0 0 7 62 10 198 9
126 -1 202 3 211 9 11 8 13 8 7 -2 -9 -15 -1 -15 24 -2 16 9 18 8 13 -6 -5
-13 -3 -15 8 -8 21 13 163 13 171 0 6 -8 8 -8 8 0 0 8 37 11 118 9 71 -1 123
3 131 9 11 8 13 8 7 -1 -9 -16 -1 -16 24 -3 16 9 18 8 13 -6 -5 -13 -3 -15 8
-8 21 14 169 14 169 0 0 -8 3 -8 8 1 4 6 23 10 42 9 19 -1 41 3 49 9 11 7 13
7 7 -2 -9 -16 -1 -16 24 -3 17 9 18 8 13 -7 -5 -15 -4 -16 8 -7 8 7 48 11 101
10 57 -1 85 2 81 9 -4 5 3 2 15 -9 12 -10 28 -16 37 -13 8 4 15 2 15 -3 0 -5
7 -7 15 -4 8 4 15 2 15 -4 0 -5 11 -8 25 -7 14 2 25 -1 25 -6 0 -6 5 -7 10 -4
6 3 10 1 10 -5 0 -6 4 -9 9 -6 5 4 11 1 13 -4 2 -6 11 -12 21 -14 9 -1 28 -12
42 -24 14 -12 25 -19 25 -15 0 4 7 -3 16 -15 8 -12 21 -19 27 -16 7 4 9 4 5 0
-8 -10 32 -57 44 -50 4 3 8 1 8 -4 0 -14 65 -82 78 -82 7 0 12 -7 12 -16 0 -8
5 -12 10 -9 6 3 10 1 10 -5 0 -6 5 -8 12 -4 8 5 9 2 5 -10 -4 -9 -3 -15 2 -12
5 3 14 0 19 -7 6 -7 27 -19 47 -27 19 -7 35 -17 35 -21 0 -4 9 -6 20 -4 11 2
20 -1 20 -6 0 -6 4 -7 10 -4 6 3 10 2 10 -4 0 -5 8 -8 18 -6 9 1 22 -2 29 -7
7 -5 17 -7 23 -3 5 3 10 0 10 -7 0 -8 3 -9 8 -3 8 12 52 15 52 4 0 -5 11 -4
25 1 14 5 25 6 25 1 0 -4 7 -8 15 -8 8 0 15 4 15 9 0 5 9 4 19 -2 14 -7 22 -7
26 0 5 8 11 7 21 -1 11 -9 14 -9 14 0 0 8 5 9 19 1 12 -6 22 -6 26 -1 5 9 49
6 67 -5 4 -3 8 -1 8 3 0 5 9 9 20 9 11 0 20 -3 20 -6 0 -4 7 -7 15 -7 8 0 15
3 15 6 0 3 11 6 25 6 14 0 25 -4 25 -10 0 -5 5 -3 10 5 7 11 10 11 10 2 0 -7
5 -10 12 -6 6 4 8 3 4 -4 -3 -6 1 -18 10 -26 8 -9 12 -16 8 -16 -4 0 7 -14 25
-30 17 -17 29 -35 26 -41 -4 -5 -3 -9 2 -8 20 3 34 -2 28 -11 -3 -5 3 -10 14
-10 12 0 21 -4 21 -10 0 -5 7 -7 15 -4 8 4 15 1 15 -6 0 -6 5 -8 10 -5 6 3 10
0 10 -7 0 -8 3 -9 8 -3 10 14 32 17 32 4 0 -8 5 -8 15 1 11 9 15 9 15 1 0 -8
5 -9 18 -2 10 5 24 6 32 1 8 -5 26 -1 46 10 17 10 35 16 38 13 3 -4 6 -1 6 5
0 7 3 11 8 10 4 -2 18 5 32 15 13 9 21 17 17 17 -5 0 -2 7 7 15 8 8 19 15 25
15 6 0 10 6 9 13 -2 6 2 11 9 10 7 -2 10 3 7 11 -3 8 0 17 6 21 8 5 8 10 0 20
-8 10 -8 15 1 21 8 5 10 3 4 -7 -5 -8 -4 -11 1 -6 5 5 9 28 10 51 0 23 4 48 8
54 4 7 2 12 -5 12 -9 0 -9 3 0 14 9 11 8 15 -4 20 -9 3 -14 10 -10 16 6 10
-13 50 -30 62 -5 4 -7 8 -3 8 13 0 -82 90 -95 90 -7 0 -18 5 -25 12 -7 7 -50
11 -115 11 -108 0 -108 0 -162 -49 -13 -12 -27 -19 -31 -15 -4 3 -4 -2 -1 -12
4 -10 3 -16 -3 -12 -11 7 -32 -29 -22 -39 3 -4 -2 -4 -12 0 -16 6 -18 4 -14
-13 8 -30 -35 -52 -64 -34 -15 9 -18 10 -12 0 5 -9 -2 -11 -30 -6 -25 4 -34 2
-30 -5 5 -7 2 -8 -7 -2 -21 13 -39 14 -40 1 0 -7 -4 -3 -9 8 -5 11 -9 14 -9 7
-1 -9 -8 -11 -22 -7 -16 5 -19 4 -14 -5 5 -9 4 -11 -4 -6 -19 12 -61 14 -61 3
0 -6 -8 -3 -17 5 -18 15 -48 14 -38 -1 2 -5 -7 -6 -20 -3 -14 2 -23 7 -21 11
3 4 -14 7 -36 8 -23 1 -44 6 -47 11 -3 5 -14 8 -24 6 -9 -1 -24 4 -32 12 -8 9
-24 16 -35 17 -11 1 -22 7 -25 15 -3 7 -9 11 -14 7 -5 -3 -13 4 -16 15 -6 18
-9 19 -23 8 -9 -7 -14 -8 -11 -3 6 11 -87 106 -95 97 -3 -3 -6 0 -6 6 0 16
-37 52 -52 52 -9 0 -8 4 2 10 13 8 12 10 -2 10 -10 0 -18 5 -18 11 0 5 -5 7
-10 4 -6 -3 -13 1 -16 9 -3 9 -13 16 -21 16 -8 0 -11 5 -8 10 3 6 -3 10 -15
10 -12 0 -18 5 -15 10 3 6 -1 10 -9 10 -9 0 -31 9 -51 20 -19 11 -35 17 -35
14 0 -4 -6 -1 -13 5 -8 6 -17 8 -20 4 -4 -3 -7 0 -7 8 0 11 -2 11 -10 -1 -6
-10 -10 -11 -10 -2 0 7 -14 12 -35 12 -21 0 -35 5 -35 13 0 7 -3 8 -8 2 -9
-13 -42 -16 -42 -4 0 6 -10 5 -21 -2 -17 -9 -23 -8 -30 2 -7 11 -9 11 -9 -1 0
-9 -3 -11 -8 -5 -9 12 -36 19 -28 7 3 -5 -8 -9 -24 -8 -17 1 -30 4 -30 8 0 4
-11 3 -25 -2 -16 -6 -25 -6 -25 1 0 6 -7 6 -20 -1 -14 -8 -20 -8 -20 0 0 7 -7
7 -21 -1 -17 -9 -23 -8 -30 2 -7 11 -9 11 -9 -1 0 -9 -3 -11 -8 -5 -9 12 -36
19 -28 7 3 -5 -8 -9 -24 -8 -17 1 -30 4 -30 8 0 4 -11 3 -25 -2 -16 -6 -25 -6
-25 1 0 6 -7 6 -20 -1 -14 -8 -20 -8 -20 0 0 7 -7 7 -21 -1 -17 -9 -23 -8 -30
2 -7 11 -9 11 -9 -1 0 -9 -3 -11 -8 -5 -9 12 -36 19 -28 7 3 -5 -8 -9 -24 -8
-17 1 -30 4 -30 8 0 4 -11 3 -25 -2 -16 -6 -25 -6 -25 1 0 6 -7 6 -20 -1 -14
-8 -20 -8 -20 0 0 7 -7 7 -21 -1 -17 -9 -23 -8 -30 2 -7 11 -9 11 -9 -1 0 -9
-3 -11 -8 -5 -9 12 -36 19 -28 7 3 -5 -8 -9 -24 -8 -17 1 -30 4 -30 8 0 4 -11
3 -25 -2 -17 -7 -25 -6 -25 1 0 8 -5 7 -15 -1 -10 -8 -15 -9 -15 -1 0 7 -8 8
-25 1 -16 -6 -25 -6 -25 1 0 6 -7 6 -20 -1 -14 -8 -20 -8 -20 0 0 7 -7 7 -21
-1 -17 -9 -23 -8 -30 2 -7 11 -9 11 -9 -1 0 -9 -3 -11 -8 -5 -9 12 -36 19 -28
7 3 -5 -8 -9 -24 -8 -17 1 -30 4 -30 8 0 4 -11 3 -25 -2 -17 -7 -25 -6 -25 1
0 8 -5 7 -15 -1 -10 -8 -15 -9 -15 -1 0 7 -8 8 -25 1 -16 -6 -25 -6 -25 1 0 6
-7 6 -20 -1 -14 -8 -20 -8 -20 0 0 7 -7 7 -21 -1 -17 -9 -23 -8 -30 2 -7 11
-9 11 -9 -1 0 -9 -3 -11 -8 -5 -9 12 -36 19 -28 7 3 -5 -8 -9 -24 -8 -17 1
-30 4 -30 8 0 4 -11 3 -25 -2 -17 -7 -25 -6 -25 1 0 8 -5 7 -15 -1 -10 -8 -15
-9 -15 -1 0 7 -8 8 -25 1 -16 -6 -25 -6 -25 1 0 6 -7 6 -20 -1 -14 -8 -20 -8
-20 0 0 7 -7 7 -21 -1 -17 -9 -23 -8 -30 2 -7 11 -9 11 -9 -1 0 -9 -3 -11 -8
-5 -9 12 -36 19 -28 7 3 -5 -8 -9 -24 -8 -17 1 -30 4 -30 8 0 4 -11 3 -25 -2
-17 -7 -25 -6 -25 1 0 8 -5 7 -15 -1 -10 -8 -15 -9 -15 -1 0 7 -8 8 -25 1 -16
-6 -25 -6 -25 1 0 6 -7 6 -20 -1 -14 -8 -20 -8 -20 0 0 7 -7 7 -21 -1 -17 -9
-23 -8 -30 2 -7 11 -9 11 -9 -1 0 -9 -3 -11 -8 -5 -9 12 -36 19 -28 7 3 -5 -8
-9 -24 -8 -17 1 -30 4 -30 8 0 4 -11 3 -25 -2 -17 -7 -25 -6 -25 1 0 8 -5 7
-15 -1 -10 -8 -15 -9 -15 -1 0 7 -8 8 -25 1 -16 -6 -25 -6 -25 1 0 6 -6 6 -19
0 -14 -8 -22 -7 -30 3 -6 7 -8 16 -4 19 3 4 1 7 -7 7 -10 0 -10 3 0 15 10 12
10 15 0 15 -10 0 -10 3 0 15 10 12 10 15 0 15 -10 0 -10 3 0 15 10 12 10 15 0
15 -9 0 -9 4 1 17 12 15 12 16 -1 8 -13 -8 -13 -7 -1 8 11 14 11 17 0 17 -12
0 -12 2 0 9 10 6 10 10 1 16 -9 6 -9 10 1 16 10 7 11 11 2 17 -8 5 -8 11 1 24
11 15 86 16 878 16 477 0 872 3 879 8 7 4 10 3 6 -3 -7 -10 81 -8 111 2 7 3
11 1 8 -4 -3 -5 1 -12 10 -15 8 -3 13 -2 10 3 -3 5 15 9 40 9 24 1 50 4 56 8
6 4 8 3 5 -3 -4 -6 0 -14 9 -17 8 -3 13 -2 10 3 -3 5 15 9 40 9 24 1 50 4 56
8 6 4 8 3 5 -3 -4 -6 0 -14 9 -17 8 -3 13 -2 10 3 -3 5 15 9 40 9 24 1 50 4
56 8 6 4 8 3 5 -3 -4 -6 0 -14 9 -17 8 -3 13 -2 10 3 -3 5 15 9 40 9 24 1 50
4 56 8 6 4 8 3 5 -3 -4 -6 0 -14 9 -17 8 -3 13 -2 10 3 -3 5 15 9 40 9 24 1
50 4 56 8 6 4 8 3 5 -3 -4 -6 0 -14 9 -17 8 -3 13 -2 10 3 -3 5 6 9 19 9 17 0
25 -6 25 -17 0 -9 9 -23 19 -31 11 -7 18 -17 15 -22 -3 -4 2 -11 10 -14 9 -3
16 -12 16 -20 0 -8 3 -14 8 -14 4 0 22 -14 41 -30 26 -24 37 -28 48 -19 11 10
12 8 7 -6 -5 -13 -4 -16 5 -11 6 4 18 2 26 -4 8 -7 15 -9 15 -6 0 4 9 2 19 -4
14 -7 22 -7 27 2 5 7 3 8 -6 3 -9 -5 -11 -4 -6 4 5 7 12 9 19 3 18 -14 77 -9
87 8 8 13 10 13 10 1 0 -11 4 -9 15 5 10 13 14 15 15 5 0 -9 7 -6 20 9 11 13
20 19 20 14 0 -5 5 -1 11 9 6 9 14 15 20 12 8 -6 13 8 10 28 0 4 6 7 15 7 8 0
13 4 10 9 -3 5 1 12 10 15 8 3 12 10 9 16 -3 5 -2 10 3 10 6 0 10 6 9 13 -1
36 4 57 13 52 6 -3 10 -1 10 4 0 6 -3 11 -7 11 -5 0 -8 11 -8 25 0 14 5 25 10
25 7 0 7 3 0 8 -5 4 -11 16 -12 27 -3 35 -9 53 -22 69 -12 14 -12 16 3 10 9
-4 3 9 -15 30 -18 19 -37 33 -42 29 -6 -3 -7 -1 -3 5 4 7 2 12 -3 12 -6 0 -11
7 -11 15 0 9 -6 12 -15 9 -8 -4 -15 -2 -15 3 0 4 -9 14 -21 21 -17 11 -20 11
-13 0 4 -7 -4 -3 -17 9 -20 18 -28 20 -39 10 -10 -10 -11 -9 -5 2 6 11 1 13
-24 9 -17 -2 -31 -1 -31 3 0 4 -13 2 -30 -4 -17 -6 -30 -15 -30 -20 0 -5 -7
-4 -15 3 -11 9 -15 9 -15 1 0 -7 -4 -9 -10 -6 -5 3 -10 1 -10 -5 0 -6 -4 -9
-9 -5 -5 3 -16 -4 -24 -15 -7 -11 -17 -17 -20 -13 -4 3 -7 -2 -7 -12 0 -10 -3
-16 -6 -12 -8 8 -34 -18 -34 -33 0 -6 -4 -8 -10 -5 -9 6 -12 2 -14 -27 -1 -7
-9 -20 -18 -29 -10 -9 -14 -20 -10 -24 4 -5 1 -5 -7 0 -21 12 -92 14 -84 2 4
-6 0 -6 -12 0 -10 6 -26 8 -36 6 -11 -3 -27 1 -36 8 -12 10 -15 10 -9 1 5 -9
0 -12 -21 -10 -16 1 -35 -2 -42 -7 -9 -5 -12 -4 -8 2 8 13 -66 11 -75 -2 -5
-7 -8 -6 -8 0 0 6 -9 11 -20 12 -12 1 -18 -3 -14 -9 5 -7 1 -7 -11 -1 -10 6
-26 8 -36 6 -11 -3 -26 0 -35 8 -8 7 -14 8 -13 3 4 -21 -2 -28 -11 -14 -8 12
-11 13 -19 1 -5 -8 -11 -9 -15 -3 -3 6 -15 8 -26 5 -11 -3 -27 0 -36 8 -8 7
-14 8 -13 3 4 -21 -2 -28 -12 -14 -8 11 -12 12 -16 2 -2 -6 -10 -9 -16 -5 -14
8 -69 8 -91 0 -9 -4 -15 -3 -12 2 8 12 -67 8 -76 -4 -5 -7 -8 -6 -8 0 0 6 -9
11 -20 12 -12 1 -18 -3 -14 -9 5 -7 1 -7 -11 -1 -10 6 -26 8 -36 6 -11 -3 -26
0 -35 8 -8 7 -14 8 -13 3 4 -21 -2 -28 -11 -14 -8 12 -11 13 -19 1 -5 -8 -11
-9 -15 -3 -3 6 -15 8 -26 5 -11 -3 -27 0 -36 8 -8 7 -14 8 -13 3 4 -21 -2 -28
-12 -14 -8 11 -12 12 -16 2 -2 -6 -10 -9 -15 -5 -19 11 -68 12 -61 1 4 -7 0
-7 -12 -1 -10 6 -26 8 -36 6 -11 -3 -26 0 -35 8 -8 7 -14 8 -13 3 4 -21 -2
-28 -11 -14 -8 12 -11 13 -19 1 -5 -8 -11 -9 -15 -3 -3 6 -15 8 -26 5 -11 -3
-27 0 -36 8 -8 7 -14 8 -13 3 4 -21 -2 -28 -12 -14 -8 11 -12 12 -16 2 -2 -6
-10 -9 -15 -5 -19 11 -68 12 -61 1 4 -7 0 -7 -12 -1 -10 6 -26 8 -36 6 -11 -3
-26 0 -35 8 -8 7 -14 8 -13 3 4 -21 -2 -28 -11 -14 -8 12 -11 13 -19 1 -5 -8
-11 -9 -15 -3 -3 6 -15 8 -26 5 -11 -3 -27 0 -36 8 -8 7 -14 8 -13 3 4 -21 -2
-28 -12 -14 -8 11 -12 12 -16 2 -2 -6 -10 -9 -15 -5 -19 11 -68 12 -61 1 4 -7
0 -7 -12 -1 -10 6 -26 8 -36 6 -11 -3 -26 0 -35 8 -8 7 -14 8 -13 3 4 -21 -2
-28 -11 -14 -8 12 -11 13 -19 1 -5 -8 -11 -9 -15 -3 -3 6 -15 8 -26 5 -11 -3
-27 0 -36 8 -8 7 -14 8 -13 3 4 -21 -2 -28 -12 -14 -8 11 -12 12 -16 2 -2 -6
-10 -9 -15 -5 -19 11 -68 12 -61 1 4 -7 0 -7 -12 -1 -10 6 -26 8 -36 6 -11 -3
-26 0 -35 8 -8 7 -14 8 -13 3 4 -21 -2 -28 -11 -14 -8 12 -11 13 -19 1 -5 -8
-11 -9 -15 -3 -3 6 -15 8 -26 5 -11 -3 -27 0 -36 8 -8 7 -14 8 -13 3 4 -21 -2
-28 -12 -14 -8 11 -12 12 -16 2 -2 -6 -10 -9 -15 -5 -19 11 -68 12 -61 1 4 -7
0 -7 -12 -1 -10 6 -26 8 -36 6 -11 -3 -26 0 -35 8 -8 7 -14 8 -13 3 4 -21 -2
-28 -11 -14 -8 12 -11 13 -19 1 -5 -8 -11 -9 -15 -3 -3 6 -15 8 -26 5 -11 -3
-27 0 -36 8 -8 7 -14 8 -13 3 4 -21 -2 -28 -12 -14 -8 11 -12 12 -16 2 -2 -6
-10 -9 -15 -5 -19 11 -68 12 -61 1 4 -7 0 -7 -12 -1 -10 6 -26 8 -36 6 -11 -3
-26 0 -35 8 -8 7 -14 8 -13 3 4 -21 -2 -28 -11 -14 -8 12 -11 13 -19 1 -5 -8
-11 -9 -15 -3 -3 6 -15 8 -26 5 -11 -3 -27 0 -36 8 -8 7 -14 8 -13 3 4 -21 -2
-28 -12 -14 -8 11 -12 12 -16 2 -2 -6 -10 -9 -15 -5 -19 11 -68 12 -61 1 4 -7
0 -7 -12 -1 -10 6 -26 8 -36 6 -11 -3 -26 0 -35 8 -8 7 -14 8 -13 3 4 -21 -2
-28 -11 -14 -8 12 -11 13 -19 1 -5 -8 -11 -9 -15 -3 -3 6 -15 8 -26 5 -11 -3
-27 0 -36 8 -8 7 -14 8 -13 3 4 -21 -2 -28 -12 -14 -8 11 -12 12 -16 2 -2 -6
-10 -9 -16 -5 -14 8 -69 8 -91 0 -9 -4 -15 -3 -12 2 8 12 -67 8 -76 -4 -5 -7
-8 -6 -8 0 0 6 -9 11 -20 12 -12 1 -18 -3 -14 -9 5 -7 1 -7 -11 -1 -10 6 -26
8 -36 6 -11 -3 -26 0 -35 8 -8 7 -14 8 -13 3 4 -21 -2 -28 -11 -14 -8 12 -11
13 -19 1 -5 -8 -11 -9 -15 -3 -3 6 -15 8 -26 5 -11 -3 -27 0 -36 8 -8 7 -14 8
-13 3 4 -21 -2 -28 -12 -14 -8 11 -12 12 -16 2 -2 -6 -10 -9 -16 -5 -14 8 -69
8 -91 0 -9 -4 -15 -3 -12 1 3 4 -13 8 -35 8 -21 -1 -39 -5 -39 -11 0 -7 -3 -7
-8 0 -10 14 -84 17 -76 3 5 -7 2 -8 -7 -3 -7 5 -28 8 -46 7 -18 -2 -33 2 -33
7 0 5 -8 8 -17 6 -10 -1 -32 12 -50 30 -29 30 -31 36 -29 96 1 35 -3 70 -8 78
-8 11 -8 13 2 7 10 -6 11 -1 6 18 -4 19 -2 28 10 32 9 3 14 10 11 14 -3 4 2
11 11 14 9 3 12 11 8 18 -6 10 -4 10 8 0 13 -10 17 -10 21 2 4 10 23 14 74 13
38 0 74 3 81 7 7 4 12 4 12 -1 0 -10 92 -9 108 1 7 4 12 2 12 -3 0 -13 22 -10
32 4 5 7 8 7 8 0 0 -11 112 -11 129 0 6 3 11 3 11 -2 0 -10 112 -9 128 1 7 4
12 2 12 -3 0 -13 22 -10 32 4 5 7 8 7 8 0 0 -11 112 -11 129 0 6 3 11 3 11 -2
0 -12 80 -11 80 2 0 5 4 4 9 -3 4 -8 12 -14 16 -14 4 0 12 6 16 14 7 11 9 11
9 -1 0 -10 3 -11 13 -2 8 6 17 8 20 5 9 -9 312 -9 326 0 6 4 11 4 11 -1 0 -4
14 -8 30 -9 17 -1 30 4 30 10 0 6 4 5 9 -2 4 -8 12 -14 16 -14 4 0 12 6 16 14
7 11 9 11 9 -1 0 -10 3 -11 13 -2 8 6 16 8 19 5 12 -11 78 -12 78 -1 0 8 3 7
9 -1 4 -8 12 -14 16 -14 4 0 12 6 16 14 7 11 9 11 9 -1 0 -10 3 -11 13 -2 8 6
17 8 20 5 9 -9 312 -9 326 0 6 4 11 4 11 -1 0 -4 14 -8 30 -9 17 -1 30 4 30
10 0 6 4 5 9 -2 11 -17 21 -17 32 0 7 11 9 11 9 -1 0 -10 3 -11 13 -2 8 6 16
8 19 5 12 -11 78 -12 78 -1 0 9 2 9 8 1 4 -6 15 -10 25 -8 9 1 15 -1 12 -6 -3
-4 2 -11 11 -14 13 -5 14 -9 4 -21 -9 -11 -9 -15 -1 -15 7 0 10 -4 6 -9 -3 -5
4 -12 15 -16 11 -4 18 -11 15 -16 -4 -5 4 -13 17 -18 13 -4 23 -12 23 -17 0
-5 3 -8 8 -7 4 2 7 -2 7 -7 0 -6 7 -10 15 -10 8 0 15 -5 15 -11 0 -5 5 -7 10
-4 6 3 10 1 10 -5 0 -7 7 -9 16 -6 10 4 13 2 8 -6 -5 -8 -2 -9 9 -5 9 3 19 2
22 -3 4 -6 11 -10 16 -10 6 0 7 4 4 10 -7 11 23 2 42 -12 7 -6 14 -4 19 3 5 8
3 9 -6 4 -9 -5 -11 -4 -6 4 4 6 12 9 17 5 5 -3 17 0 26 8 14 11 16 11 8 -2 -8
-13 -7 -13 8 -1 12 9 17 10 17 2 0 -7 10 -3 22 9 12 11 28 20 35 20 7 0 13 5
13 11 0 5 4 7 10 4 6 -3 7 1 4 9 -4 10 -1 16 8 16 15 0 44 26 50 45 2 6 6 9
10 8 3 -1 5 8 4 22 -2 13 3 26 11 29 8 3 12 10 8 15 -3 5 -1 13 5 16 8 5 7 11
-1 21 -9 11 -8 14 2 14 11 0 11 2 -1 10 -13 9 -13 11 0 20 13 9 13 10 0 10
-12 0 -12 2 -1 9 9 6 10 11 3 15 -6 4 -8 14 -5 23 5 12 3 14 -7 8 -10 -6 -12
-4 -7 10 4 9 3 23 -3 30 -6 7 -9 17 -8 23 4 11 -88 101 -105 103 -7 1 -15 1
-19 0 -5 0 -8 3 -8 8 0 11 -33 23 -72 26 -16 2 -25 -1 -22 -7 4 -6 0 -7 -12
-1 -11 5 -32 7 -49 5 -16 -1 -38 -3 -47 -4 -10 -1 -18 -6 -18 -11 0 -5 -7 -6
-16 -3 -8 3 -13 2 -10 -3 3 -4 -6 -13 -19 -19 -14 -7 -25 -16 -25 -22 0 -6 -4
-8 -10 -5 -10 6 -57 -64 -52 -78 1 -5 -2 -6 -8 -2 -5 3 -10 1 -10 -5 0 -6 -4
-9 -9 -5 -5 3 -13 1 -16 -5 -5 -8 -11 -7 -21 1 -11 9 -14 9 -14 -1 0 -10 -3
-10 -15 0 -9 7 -15 8 -15 2 0 -11 -18 -11 -37 1 -8 5 -13 3 -13 -4 0 -8 -4 -8
-15 1 -8 7 -15 8 -15 3 0 -5 -9 -9 -20 -9 -11 0 -20 4 -20 9 0 4 -5 5 -11 2
-14 -9 -124 -9 -138 -1 -6 4 -11 4 -11 -1 0 -12 -94 -10 -102 2 -5 6 -8 5 -8
-3 0 -10 -5 -10 -20 -2 -14 8 -20 8 -20 0 0 -7 -5 -6 -14 2 -10 9 -11 18 -5
31 7 11 6 17 -2 17 -8 0 -8 4 1 15 9 11 9 15 1 15 -7 0 -9 5 -4 12 10 18 13
38 4 38 -4 0 -8 7 -8 15 0 8 5 15 10 15 5 0 4 7 -3 15 -10 12 -10 15 1 15 11
0 11 2 -1 10 -8 5 -10 10 -5 10 6 0 11 9 11 20 0 11 -4 20 -8 20 -5 0 -4 8 1
18 6 12 7 22 1 28 -6 6 -2 16 10 27 11 9 20 13 20 8 0 -6 9 -9 20 -8 11 1 20
5 20 10 0 4 6 5 13 0 19 -12 57 -11 57 1 0 8 2 8 8 0 9 -14 42 -14 42 0 0 6 5
5 12 -2 15 -15 31 -16 22 0 -5 7 -3 8 7 3 20 -13 69 -13 69 -1 0 8 3 8 8 0 9
-14 42 -14 42 0 0 6 5 5 12 -2 15 -15 31 -16 22 0 -5 7 -3 8 7 3 20 -13 69
-13 69 -1 0 8 3 8 8 0 9 -14 42 -14 42 0 0 6 5 5 12 -2 15 -15 31 -16 22 0 -5
7 -3 8 7 3 20 -13 69 -13 69 -1 0 8 3 8 8 0 9 -14 42 -14 42 0 0 6 5 5 12 -2
15 -15 31 -16 22 0 -5 7 -3 8 7 2 20 -12 83 -12 91 1 5 7 8 7 8 0 0 -12 59
-13 77 -2 6 4 14 3 17 -1 6 -10 36 -9 52 1 6 3 14 3 18 0 11 -11 66 -10 66 1
0 7 3 8 8 1 4 -5 27 -11 52 -12 25 -1 46 -7 48 -12 2 -5 9 -8 16 -5 8 3 20 -1
27 -8 8 -7 21 -14 29 -16 7 -2 21 -12 31 -23 9 -10 19 -19 23 -19 8 0 31 -18
54 -42 9 -10 23 -18 32 -18 13 0 13 -1 0 -10 -12 -8 -10 -10 8 -10 13 0 20 -4
17 -10 -3 -6 1 -10 9 -10 9 0 16 -4 16 -8 0 -5 11 -15 25 -22 13 -7 22 -17 19
-21 -2 -4 5 -6 16 -4 11 2 20 -1 20 -6 0 -6 5 -7 10 -4 6 3 10 0 10 -8 0 -10
8 -13 25 -9 15 2 25 0 25 -7 0 -7 5 -9 10 -6 6 4 18 1 27 -7 12 -9 15 -9 9 -1
-9 16 35 13 46 -2 5 -6 8 -6 8 1 0 8 13 10 36 7 29 -4 35 -2 28 9 -6 11 -5 11
9 -1 9 -7 26 -11 37 -8 11 3 23 1 26 -5 4 -6 9 -5 14 3 7 10 12 10 26 -2 12
-9 15 -10 10 -1 -6 10 -1 11 20 6 21 -6 25 -4 19 7 -8 12 -6 12 8 0 9 -7 26
-11 37 -8 11 3 23 1 26 -5 4 -6 9 -5 14 3 7 10 12 10 26 -2 12 -9 15 -10 10
-1 -6 10 -1 11 20 6 21 -6 25 -4 19 7 -8 12 -6 12 8 0 9 -7 26 -11 37 -8 11 3
23 1 26 -5 4 -6 9 -5 14 3 7 10 12 10 26 -2 12 -9 15 -10 10 -1 -6 10 -1 11
20 6 21 -6 25 -4 19 7 -8 12 -6 12 8 0 9 -7 26 -11 37 -8 11 3 23 1 26 -5 4
-6 9 -5 14 3 7 10 12 10 26 -2 11 -9 15 -9 10 -2 -9 16 35 13 46 -2 5 -6 8 -6
8 1 0 8 13 10 36 7 29 -4 35 -2 28 9 -6 11 -5 11 9 -1 9 -7 26 -11 37 -8 11 3
23 1 26 -5 4 -6 9 -5 14 3 7 10 12 10 26 -2 11 -9 15 -9 10 -2 -9 16 35 13 46
-2 5 -7 8 -7 8 0 0 11 81 12 99 1 6 -4 11 -3 11 2 0 11 63 8 81 -4 8 -5 9 -3
5 5 -10 15 25 11 36 -4 5 -6 8 -6 8 1 0 8 13 10 36 7 29 -4 35 -2 28 9 -6 11
-5 11 9 -1 9 -7 26 -11 37 -8 11 3 23 1 26 -5 4 -6 9 -5 14 3 7 10 12 10 26
-2 10 -8 15 -9 11 -3 -4 7 6 10 28 10 19 -1 35 -5 35 -9 0 -5 4 -6 9 -3 11 7
23 -22 15 -36 -3 -5 3 -12 15 -15 11 -3 23 -14 26 -24 4 -10 13 -19 20 -19 8
0 20 -9 27 -19 8 -11 20 -21 28 -23 8 -2 18 -7 22 -13 5 -6 8 -4 8 5 0 13 2
13 10 0 10 -16 61 -20 72 -5 5 6 8 5 8 -3 0 -9 5 -10 18 -3 10 5 24 6 31 2 18
-12 52 -1 44 13 -5 8 -3 8 8 -1 11 -9 22 -5 53 18 22 16 36 29 31 29 -4 0 7
10 26 23 19 12 34 27 35 32 0 6 7 24 14 40 7 17 13 33 12 38 -1 4 3 7 8 7 7 0
7 7 -1 21 -9 17 -8 20 2 14 8 -6 10 -4 4 5 -4 7 -8 35 -8 62 1 26 -3 48 -8 48
-5 0 -9 9 -9 19 0 11 -5 23 -10 26 -6 4 -7 11 -4 17 4 7 2 8 -5 4 -6 -4 -14 0
-18 11 -8 22 -38 53 -52 53 -5 0 -13 5 -17 12 -5 7 -2 8 7 3 8 -5 10 -4 6 0
-4 5 -15 10 -25 11 -9 2 -18 7 -20 13 -2 5 -10 7 -18 4 -8 -3 -14 -1 -14 3 0
5 -23 10 -50 11 -37 1 -49 -1 -43 -10 5 -8 2 -8 -9 1 -11 9 -23 10 -42 2 -19
-7 -26 -6 -26 3 0 8 -3 9 -8 1 -8 -12 -43 -28 -55 -25 -5 1 -6 -2 -4 -6 6 -10
-19 -34 -27 -26 -3 4 -6 -1 -6 -10 0 -9 -7 -17 -15 -17 -8 0 -14 -3 -12 -7 1
-5 -2 -8 -7 -8 -4 0 -13 -16 -20 -35 -6 -19 -21 -39 -33 -46 -13 -6 -21 -14
-18 -17 3 -4 -1 -3 -7 3 -16 13 -31 13 -23 0 10 -16 -18 -7 -33 10 -10 11 -12
12 -6 1 5 -11 3 -13 -9 -8 -10 4 -17 2 -17 -5 0 -7 -7 -5 -17 4 -19 17 -47 13
-37 -4 4 -6 2 -8 -3 -5 -18 11 -123 16 -117 6 9 -15 -20 -6 -34 11 -8 8 -11
10 -8 4 5 -10 -68 -15 -199 -14 -23 1 -145 0 -160 0 -5 0 -45 1 -87 3 -42 2
-74 -1 -72 -5 9 -14 -20 -4 -34 12 -8 8 -11 9 -7 3 4 -9 -3 -12 -24 -9 -18 2
-31 -1 -31 -7 0 -6 -7 -2 -16 9 -8 10 -13 14 -10 8 9 -19 -61 -23 -80 -4 -9 8
-14 9 -10 2 6 -10 -6 -12 -53 -8 -35 2 -58 0 -55 -5 9 -15 -20 -5 -34 11 -8 8
-11 10 -8 4 4 -8 -6 -12 -27 -12 -17 0 -60 -2 -94 -5 -35 -3 -63 -2 -63 2 0 4
-18 6 -40 4 -22 -2 -40 2 -40 7 0 6 -12 10 -26 10 -14 0 -23 4 -20 8 2 4 -5 9
-17 9 -12 1 -27 10 -34 19 -7 10 -13 15 -13 11 0 -5 -6 -2 -14 5 -8 7 -12 16
-9 21 4 6 -20 11 -40 8 -5 -1 -6 3 -2 9 3 5 -2 10 -11 10 -10 0 -15 3 -11 6 6
7 -17 34 -29 34 -3 0 -15 10 -25 22 -11 11 -19 19 -19 16 0 -3 -17 10 -37 29
-23 20 -45 32 -55 30 -10 -3 -22 1 -29 9 -7 9 -31 13 -69 13 -32 -1 -63 2 -69
6 -6 3 -11 2 -11 -4 0 -6 -11 -6 -30 -1 -21 6 -30 5 -30 -3 0 -7 -4 -6 -10 3
-5 8 -10 11 -10 5 0 -5 -13 -10 -30 -10 -16 0 -30 5 -30 10 0 6 -5 3 -10 -5
-5 -8 -10 -10 -10 -5 0 6 -9 11 -20 11 -11 0 -20 -3 -20 -7 0 -3 -18 -3 -40 1
-27 5 -40 4 -40 -4 0 -6 -5 -4 -10 4 -5 8 -10 11 -10 5 0 -5 -17 -10 -37 -10
-21 0 -41 5 -45 10 -5 6 -8 4 -8 -5 0 -13 -1 -13 -10 0 -5 8 -10 10 -10 4 0
-8 -11 -9 -35 -4 -19 4 -35 4 -35 0 0 -5 -13 -5 -30 0 -21 6 -30 5 -30 -3 0
-7 -4 -6 -10 3 -5 8 -10 11 -10 5 0 -5 -13 -10 -30 -10 -16 0 -30 5 -30 10 0
6 -5 3 -10 -5 -6 -9 -10 -10 -10 -3 0 8 -9 9 -30 3 -21 -6 -30 -5 -30 3 0 8
-3 7 -9 -2 -7 -11 -9 -11 -14 0 -3 8 -6 9 -6 3 -1 -8 -12 -9 -36 -4 -19 4 -35
4 -35 0 0 -5 -13 -5 -30 0 -21 6 -30 5 -30 -3 0 -7 -4 -6 -10 3 -5 8 -10 11
-10 5 0 -5 -13 -10 -30 -10 -16 0 -30 5 -30 10 0 6 -5 3 -10 -5 -5 -8 -10 -10
-10 -5 0 6 -9 11 -20 11 -11 0 -20 -4 -20 -9 0 -4 -4 -6 -8 -3 -5 3 -30 6 -58
7 -27 1 -52 7 -56 13 -6 8 -10 8 -15 1 -9 -12 -23 -13 -39 -3 -6 4 -14 4 -18
1 -11 -12 -45 -13 -51 -3 -4 6 -13 7 -23 2 -20 -10 -33 -10 -49 1 -6 4 -14 3
-18 -3 -4 -7 -12 -7 -26 0 -11 7 -19 7 -19 1 0 -10 -19 -9 -36 2 -6 3 -14 3
-18 -1 -12 -11 -67 -11 -59 1 4 6 1 7 -8 1 -18 -12 -30 -12 -51 -2 -10 5 -19
4 -23 -2 -4 -7 -13 -7 -26 0 -11 7 -19 7 -19 1 0 -10 -19 -9 -36 2 -6 3 -14 3
-18 0 -11 -12 -45 -13 -51 -3 -4 6 -13 7 -23 2 -20 -10 -33 -10 -49 1 -6 4
-14 3 -18 -3 -4 -7 -12 -7 -26 0 -11 7 -19 7 -19 1 0 -10 -19 -9 -36 2 -6 3
-14 3 -18 -1 -12 -11 -67 -11 -59 1 4 6 1 7 -8 1 -18 -12 -30 -12 -51 -2 -10
5 -19 4 -23 -2 -4 -7 -13 -7 -26 0 -11 7 -19 7 -19 1 0 -10 -19 -9 -36 2 -6 3
-14 3 -18 0 -11 -12 -45 -13 -51 -3 -4 6 -13 7 -23 2 -20 -10 -33 -10 -49 1
-6 4 -14 3 -18 -3 -4 -7 -12 -7 -26 0 -11 7 -19 7 -19 1 0 -10 -19 -9 -36 2
-6 3 -14 3 -18 -1 -12 -11 -67 -11 -59 1 4 6 1 7 -8 1 -18 -11 -30 -12 -50 -3
-9 5 -21 3 -27 -3 -7 -7 -12 -8 -12 -3 0 6 -18 11 -40 12 -29 1 -38 -2 -33
-10 4 -7 0 -7 -10 1 -9 8 -22 10 -28 6 -8 -5 -9 -3 -4 5 5 9 -1 11 -24 8 -17
-3 -31 -1 -31 4 0 6 -4 7 -10 4 -5 -3 -10 -2 -10 3 0 5 -13 8 -30 7 -16 -1
-30 2 -30 7 0 5 -4 6 -10 3 -5 -3 -10 -1 -10 6 0 8 -5 7 -17 -2 -12 -10 -14
-10 -9 -1 4 7 0 15 -11 19 -10 4 -25 15 -34 25 -9 10 -18 16 -21 13 -2 -3 -15
9 -29 26 -13 16 -34 42 -46 56 -25 28 -29 38 -12 27 6 -3 3 6 -7 22 -12 17
-14 25 -6 20 12 -7 12 -4 1 15 -7 13 -12 30 -10 37 1 8 -6 20 -16 28 -10 7
-14 14 -9 14 5 0 2 8 -5 17 -12 15 -12 16 1 8 12 -7 13 -6 4 6 -6 8 -11 25
-12 38 0 13 -5 27 -9 30 -8 6 -9 13 -15 68 -1 12 -6 19 -10 17 -7 -5 -12 19
-11 53 1 7 -3 10 -8 7 -7 -4 -12 33 -8 62 0 4 -5 11 -13 15 -11 7 -11 9 1 9 9
0 10 4 4 13 -11 14 -11 27 0 45 5 7 3 12 -5 12 -9 0 -10 3 -2 8 6 4 10 24 10
44 -1 20 2 35 6 32 4 -3 8 0 8 6 0 6 4 9 8 6 5 -3 9 0 10 7 2 29 9 45 25 61 9
10 15 22 12 27 -4 5 -1 9 4 9 16 0 51 32 45 42 -3 4 -1 8 5 8 5 0 22 11 37 25
15 14 36 25 46 25 11 0 16 5 13 10 -3 6 -4 10 -1 10 2 0 12 3 22 7 12 5 15 3
9 -6 -4 -8 3 -6 18 4 15 9 32 13 38 9 8 -4 9 -3 5 4 -5 8 5 10 35 6 29 -4 39
-3 35 5 -5 7 -1 9 8 5 9 -3 13 -11 9 -18 -3 -6 3 -3 14 7 13 11 23 14 27 8 4
-5 16 -8 28 -6 12 3 28 -1 37 -8 11 -9 13 -9 8 0 -10 15 52 15 72 -1 11 -8 13
-8 7 2 -6 9 6 11 54 7 34 -3 59 -2 56 3 -3 5 1 9 9 9 8 0 12 -3 10 -7 -6 -10
108 -6 124 5 10 6 12 4 6 -5 -6 -10 -2 -12 15 -7 13 3 31 1 39 -6 12 -9 13 -9
7 1 -6 9 6 11 54 7 40 -4 59 -2 55 5 -3 6 0 7 9 4 9 -3 13 -11 9 -18 -3 -6 3
-3 14 7 13 11 23 14 27 8 4 -5 16 -8 28 -6 12 3 28 -1 37 -8 12 -9 13 -9 7 1
-6 9 6 11 54 7 40 -4 59 -2 55 5 -3 6 0 7 9 4 9 -3 13 -11 9 -18 -3 -6 3 -3
14 7 13 11 23 14 27 8 4 -5 16 -8 28 -6 12 3 28 -1 37 -8 12 -9 13 -9 7 1 -6
9 6 11 54 7 40 -4 59 -2 55 5 -3 6 0 7 9 4 9 -3 13 -11 9 -18 -3 -6 3 -3 14 7
13 11 23 14 27 8 4 -5 16 -8 28 -6 12 3 28 -1 37 -8 12 -9 13 -9 7 1 -6 9 6
11 54 7 34 -3 59 -2 56 3 -3 5 1 9 9 9 8 0 12 -3 10 -7 -6 -10 97 -6 114 4 9
6 12 5 7 -2 -7 -12 41 -11 61 1 6 4 15 2 19 -4 5 -8 3 -9 -6 -4 -9 6 -11 4 -6
-4 6 -9 13 -8 29 6 11 10 17 12 13 6 -9 -16 8 -17 36 -2 13 7 18 7 14 1 -7
-12 42 -11 61 1 6 4 15 2 19 -4 5 -8 3 -9 -6 -4 -9 6 -11 4 -6 -4 6 -9 12 -8
26 4 10 9 20 12 23 8 3 -5 20 -10 37 -11 19 -1 29 2 25 8 -3 6 0 7 9 4 9 -3
13 -11 9 -18 -3 -6 3 -3 14 7 13 11 23 14 27 8 4 -5 16 -8 28 -6 12 3 28 -1
37 -8 12 -9 13 -9 7 1 -6 9 6 11 54 7 40 -4 59 -2 55 5 -3 6 0 7 9 4 9 -3 13
-11 9 -18 -3 -6 3 -3 14 7 13 11 23 14 27 8 4 -5 16 -8 28 -6 12 3 28 -1 37
-8 12 -9 13 -9 7 1 -6 9 6 11 54 7 34 -3 59 -2 56 3 -3 5 1 9 9 9 8 0 12 -3
10 -7 -6 -10 97 -6 114 4 9 6 12 5 7 -2 -7 -12 41 -11 61 1 6 4 15 2 19 -4 5
-8 3 -9 -6 -4 -9 6 -11 4 -6 -4 6 -9 13 -8 29 6 11 10 17 12 13 6 -9 -16 8
-17 36 -2 13 7 18 7 14 1 -7 -12 42 -11 61 1 6 4 15 2 19 -4 5 -8 3 -9 -6 -4
-9 6 -11 4 -6 -4 6 -9 12 -8 26 4 10 9 20 12 23 8 3 -5 20 -10 37 -11 19 -1
29 2 25 8 -3 6 0 7 9 4 9 -3 13 -11 9 -18 -3 -6 3 -3 14 7 13 11 23 14 27 8 4
-5 16 -8 28 -6 12 3 28 -1 37 -8 12 -9 13 -9 7 1 -6 9 6 11 54 7 40 -4 59 -2
55 5 -3 6 0 7 9 4 9 -3 13 -11 9 -18 -3 -6 3 -3 14 7 13 11 23 14 27 8 4 -5
16 -8 28 -6 12 3 28 -1 37 -8 9 -8 12 -8 8 -1 -4 7 2 14 13 17 11 3 20 0 20
-6 0 -9 2 -9 8 0 4 7 16 12 27 12 11 -1 31 2 45 6 14 4 35 8 47 9 12 0 20 3
17 5 -6 6 68 61 76 56 4 -2 12 7 19 21 6 14 16 22 21 19 6 -3 10 -2 10 4 0 5
11 22 25 37 13 14 22 30 20 34 -3 4 2 11 11 14 9 4 14 9 11 12 -3 3 5 16 18
28 19 18 22 25 12 36 -9 10 -9 11 0 6 7 -4 22 8 36 29 13 19 27 32 30 28 4 -3
7 1 7 9 0 15 13 25 34 26 5 0 13 6 17 14 7 11 9 10 9 -1 0 -11 4 -11 18 2 10
10 22 14 26 10 4 -4 11 -1 16 7 6 8 10 10 10 5 0 -6 31 -11 72 -12 39 -1 86
-5 105 -8 24 -3 32 -2 27 6 -5 8 -1 8 13 0 11 -6 23 -8 26 -4 4 3 13 0 21 -6
11 -9 16 -9 22 0 5 8 3 9 -6 4 -9 -5 -11 -4 -6 4 4 6 10 9 14 7 4 -2 24 -7 45
-10 28 -4 36 -3 31 6 -4 7 -3 8 5 4 21 -13 72 -16 65 -4 -5 7 -2 8 6 3 19 -12
91 -14 84 -3 -4 6 2 5 13 -1 11 -6 23 -8 26 -4 4 3 13 0 21 -6 11 -9 16 -9 22
0 5 8 3 9 -6 4 -9 -5 -11 -4 -6 4 4 6 10 9 14 7 4 -2 24 -7 45 -10 28 -4 36
-3 31 6 -4 7 -3 8 5 4 21 -13 72 -16 65 -4 -5 7 -2 8 6 3 20 -12 91 -14 83 -2
-3 6 -1 7 6 3 21 -13 61 -17 61 -6 0 7 5 8 13 3 18 -11 36 -12 43 -2 3 5 11 6
17 2 21 -13 49 -14 41 -1 -4 7 -3 8 5 4 21 -14 63 -18 56 -5 -5 8 -2 8 11 2
11 -5 43 -8 72 -8 28 1 52 -2 52 -6 0 -5 8 -5 17 -2 12 5 15 2 10 -10 -3 -9
-2 -17 4 -17 6 0 7 -4 4 -10 -3 -5 -1 -10 5 -10 6 0 9 -3 7 -7 -6 -10 19 -34
27 -26 3 4 6 -1 6 -10 0 -9 6 -17 14 -17 8 0 18 -5 22 -12 5 -7 2 -8 -7 -3 -8
4 -5 -1 6 -12 13 -13 22 -16 27 -9 4 6 9 4 14 -7 5 -15 9 -15 22 -5 12 10 14
10 8 1 -5 -9 0 -13 13 -13 12 0 21 -5 21 -11 0 -8 5 -8 15 1 12 10 15 10 15 0
0 -10 3 -10 14 -1 9 8 15 8 18 2 2 -7 13 -5 31 4 15 8 25 10 22 5 -8 -13 27 0
40 14 6 6 15 11 20 12 31 3 56 18 51 30 -3 8 1 14 10 14 8 0 12 5 9 10 -6 9 8
14 28 11 5 -1 6 3 2 9 -3 5 -1 10 4 10 6 0 11 12 11 26 0 14 4 23 8 20 4 -3
13 8 19 25 7 18 8 29 2 29 -6 0 -7 5 -3 12 10 17 11 68 0 68 -5 0 -3 6 3 14 9
11 9 15 -1 19 -11 4 -11 6 0 6 9 1 10 6 3 20 -6 10 -7 21 -4 25 3 3 -1 6 -10
6 -10 0 -14 5 -11 15 4 8 -1 17 -10 21 -9 3 -13 10 -10 15 3 5 0 9 -6 9 -15 0
-40 25 -40 40 0 7 -7 9 -16 6 -8 -3 -13 -2 -11 2 6 9 -19 33 -27 25 -3 -4 -6
-1 -6 5 0 7 -5 12 -11 12 -5 0 -7 -6 -3 -12 4 -7 -2 -5 -13 5 -23 20 -48 23
-37 5 4 -7 -2 -5 -13 5 -12 10 -23 14 -26 9 -4 -4 -23 -7 -43 -5 -21 1 -43 -2
-50 -8 -7 -6 -18 -8 -24 -4 -5 3 -10 2 -10 -3 0 -9 -37 -25 -52 -23 -5 1 -8
-7 -8 -16 0 -9 -3 -14 -6 -10 -6 6 -13 0 -49 -43 -12 -13 -14 -20 -5 -15 8 5
5 -4 -8 -19 -12 -16 -20 -31 -18 -35 2 -3 -92 -6 -210 -5 -150 0 -211 -3 -207
-10 5 -7 2 -7 -8 0 -8 7 -25 11 -39 10 -14 -1 -28 3 -32 9 -5 6 -8 6 -8 -2 0
-7 -7 -10 -15 -7 -9 4 -15 0 -15 -7 0 -11 -2 -11 -8 -1 -5 7 -22 10 -40 8 -18
-2 -32 1 -32 7 0 6 -7 2 -16 -9 -8 -10 -13 -14 -10 -8 7 14 -82 16 -90 2 -4
-5 -10 -5 -17 0 -7 5 -30 9 -52 9 -22 0 -45 -4 -52 -9 -7 -5 -14 -5 -17 1 -4
5 -29 9 -56 7 -27 -1 -52 3 -54 9 -3 6 -5 6 -5 -2 -1 -7 -16 -10 -41 -7 -31 3
-39 1 -34 -9 6 -9 4 -9 -7 -1 -8 7 -25 11 -39 10 -14 -1 -28 3 -32 9 -5 6 -8
6 -8 -2 0 -7 -7 -10 -15 -7 -9 4 -15 0 -15 -7 0 -11 -2 -11 -8 -1 -5 7 -22 10
-40 8 -18 -2 -32 1 -32 7 0 6 -7 2 -16 -9 -8 -10 -13 -14 -10 -8 4 8 -10 11
-44 11 -28 -1 -50 -5 -50 -10 0 -5 -6 -7 -12 -4 -7 2 -19 -3 -26 -12 -11 -13
-12 -13 -7 -1 4 8 -2 5 -13 -7 -11 -12 -22 -20 -25 -17 -8 9 -98 -86 -92 -97
4 -5 0 -9 -8 -9 -8 0 -18 -7 -21 -16 -4 -10 -2 -13 7 -9 6 4 4 0 -5 -8 -10 -8
-18 -20 -18 -26 0 -7 -4 -10 -9 -7 -5 3 -14 -8 -21 -24 -7 -17 -19 -30 -28
-30 -8 0 -13 -3 -9 -6 7 -8 -32 -48 -56 -57 -10 -4 -15 -12 -12 -17 4 -6 3
-10 -2 -8 -4 1 -25 -6 -47 -15 -21 -9 -47 -17 -57 -17 -11 0 -19 -5 -19 -12 0
-6 -3 -8 -7 -5 -3 4 -13 1 -21 -6 -13 -10 -14 -9 -7 2 6 11 4 13 -8 8 -10 -4
-17 -1 -17 6 0 8 -3 8 -8 2 -9 -14 -65 -14 -74 0 -5 6 -8 6 -8 -2 0 -13 -26
-13 -47 0 -6 4 -14 3 -17 -1 -7 -11 -87 -10 -105 2 -9 6 -12 5 -8 -1 4 -6 -8
-10 -28 -10 -20 0 -32 4 -28 10 4 6 1 7 -8 1 -21 -12 -59 -13 -59 0 0 6 -4 4
-10 -4 -5 -8 -12 -11 -16 -8 -4 4 -16 3 -27 -3 -15 -9 -18 -8 -12 2 6 9 3 11
-8 6 -10 -4 -17 -1 -17 6 0 8 -3 8 -8 2 -4 -6 -20 -11 -37 -11 -16 0 -33 5
-37 11 -5 6 -8 6 -8 -2 0 -13 -26 -13 -47 0 -6 4 -14 3 -17 -1 -7 -11 -87 -10
-105 2 -9 6 -12 5 -8 -1 4 -6 -8 -10 -28 -10 -20 0 -32 4 -28 10 4 6 1 7 -8 1
-21 -12 -59 -13 -59 0 0 6 -4 4 -10 -4 -5 -8 -12 -11 -16 -8 -4 4 -16 3 -27
-3 -15 -9 -18 -8 -12 2 6 9 3 11 -8 6 -10 -4 -17 -1 -17 6 0 8 -3 8 -8 2 -4
-6 -20 -11 -37 -11 -16 0 -33 5 -37 11 -5 6 -8 6 -8 -2 0 -13 -26 -13 -47 0
-6 4 -14 3 -17 -1 -7 -11 -87 -10 -105 2 -9 6 -12 5 -8 -1 4 -6 -8 -10 -28
-10 -20 0 -32 4 -28 10 4 6 1 7 -8 1 -20 -12 -38 -14 -45 -3 -3 5 -11 6 -17 2
-7 -5 -25 -8 -42 -9 -36 -1 -57 23 -44 48 6 12 6 18 0 18 -7 0 -7 9 -1 25 6
16 6 25 -1 25 -6 0 -6 8 2 21 9 17 8 20 -3 13 -11 -6 -11 -5 1 9 10 13 10 17
1 17 -10 0 -10 3 0 15 10 12 10 15 0 15 -10 0 -10 3 0 15 10 12 10 15 -1 15
-11 0 -11 2 1 10 10 7 11 10 2 10 -10 0 -10 4 0 20 7 10 15 16 18 12 9 -12 40
-11 40 2 0 6 5 4 10 -4 9 -13 11 -13 20 0 7 11 10 11 10 2 0 -10 5 -10 20 -2
11 6 20 7 20 2 0 -5 7 -9 15 -9 8 0 15 5 15 10 0 5 6 5 13 -2 10 -8 17 -7 25
1 7 7 12 8 12 2 0 -6 7 -11 15 -11 8 0 15 5 15 11 0 6 4 6 11 -1 7 -7 20 -8
34 -3 14 5 27 4 34 -3 8 -8 11 -7 11 4 0 12 2 12 9 0 8 -12 12 -12 25 -2 12
11 16 11 16 1 0 -10 3 -10 15 0 8 7 15 8 15 3 0 -5 9 -9 20 -9 11 0 20 5 20
11 0 5 5 3 10 -5 9 -13 11 -13 20 0 6 9 10 10 10 3 0 -8 9 -9 30 -3 19 5 32 5
36 -2 4 -6 10 -5 15 3 7 12 9 12 9 0 0 -11 3 -11 15 -1 8 7 15 8 15 3 0 -5 7
-10 15 -10 8 0 15 5 15 10 0 5 6 5 13 -2 10 -8 17 -7 25 1 7 7 12 8 12 2 0 -6
7 -11 15 -11 8 0 15 5 15 10 0 5 7 4 15 -3 12 -10 18 -10 30 0 12 10 15 10 15
0 0 -10 3 -10 15 0 12 10 15 10 15 0 0 -10 3 -10 15 0 12 10 15 9 15 -4 0 -10
4 -15 9 -12 5 3 14 -8 20 -25 6 -17 15 -28 21 -24 6 4 9 2 8 -4 -5 -16 62 -81
83 -81 10 0 19 -5 19 -11 0 -5 4 -8 9 -4 5 3 13 0 16 -6 4 -5 13 -8 21 -5 8 3
14 1 14 -5 0 -6 6 -6 18 0 11 6 24 6 32 1 9 -5 19 -5 27 2 9 7 13 7 13 -2 0
-9 3 -10 14 -1 7 6 25 12 39 13 14 1 23 6 21 10 -3 4 2 8 11 8 21 0 66 30 60
40 -3 5 4 11 15 15 11 4 18 10 15 15 -3 4 2 11 10 14 8 3 14 11 13 18 -2 7 3
12 11 10 12 -3 12 0 2 12 -10 11 -9 16 3 23 10 6 15 27 16 73 1 36 1 70 0 75
-1 6 -2 14 -1 18 1 4 -4 18 -11 30 -7 12 -11 25 -10 30 1 4 -3 7 -9 7 -5 0 -7
5 -4 10 3 6 -1 10 -10 10 -9 0 -13 5 -10 10 3 6 1 10 -5 10 -6 0 -9 4 -6 8 3
5 -7 15 -22 23 -15 8 -33 20 -41 27 -7 7 -26 16 -42 19 -16 3 -29 8 -29 12 0
4 -11 8 -26 9 -18 1 -23 -2 -18 -11 6 -9 4 -9 -7 -1 -16 13 -89 15 -89 2 0 -4
-8 -8 -18 -8 -10 0 -22 -3 -26 -7 -4 -5 -11 -8 -14 -9 -18 -2 -57 -22 -54 -28
5 -13 2 -26 -5 -24 -14 5 -54 -42 -47 -54 4 -6 3 -9 -2 -6 -11 6 -45 -28 -36
-36 8 -9 -30 -2 -45 7 -6 4 -14 3 -17 -2 -7 -10 -25 -9 -43 2 -7 5 -13 4 -13
-2 0 -5 -21 -8 -50 -5 -36 3 -50 0 -50 -8 0 -9 -2 -10 -8 -2 -4 7 -29 11 -57
10 -27 -2 -56 2 -62 7 -9 6 -13 6 -13 -1 0 -6 -19 -9 -50 -6 -36 3 -50 0 -50
-8 0 -9 -2 -10 -8 -2 -4 7 -29 11 -57 10 -27 -2 -56 2 -62 7 -9 6 -13 6 -13
-1 0 -6 -19 -9 -50 -6 -36 3 -50 0 -50 -8 0 -8 -3 -9 -8 -3 -4 6 -29 11 -55
13 -37 2 -46 -1 -41 -10 6 -9 3 -9 -9 1 -9 7 -17 10 -17 6 0 -4 -6 -2 -14 4
-8 7 -17 8 -20 3 -3 -5 -29 -8 -57 -5 -40 3 -49 1 -43 -9 6 -10 4 -10 -9 1 -9
7 -17 10 -17 6 0 -4 -6 -2 -14 4 -8 7 -16 8 -19 4 -7 -10 -108 -10 -124 0 -7
5 -13 4 -13 -2 0 -5 -21 -8 -50 -5 -36 3 -50 0 -50 -8 0 -9 -3 -10 -8 -2 -4 7
-41 10 -97 9 -49 0 -96 3 -102 8 -8 6 -13 6 -13 -1 0 -6 -19 -9 -50 -6 -36 3
-50 0 -50 -8 0 -9 -2 -10 -8 -2 -4 7 -29 11 -57 10 -27 -2 -56 2 -62 7 -9 6
-13 6 -13 -1 0 -6 -19 -9 -50 -6 -36 3 -50 0 -50 -8 0 -9 -2 -10 -8 -2 -4 7
-29 11 -57 10 -27 -2 -56 2 -62 7 -9 6 -13 6 -13 -1 0 -6 -19 -9 -50 -6 -36 3
-50 0 -50 -8 0 -9 -2 -10 -8 -2 -4 7 -29 11 -57 10 -27 -2 -56 2 -62 7 -9 6
-13 6 -13 -1 0 -6 -19 -9 -50 -6 -36 3 -50 0 -50 -8 0 -9 -3 -8 -10 2 -5 8
-12 11 -16 7 -4 -4 -13 -2 -21 4 -8 8 -13 8 -13 1 0 -6 -19 -9 -50 -6 -36 3
-50 0 -50 -8 0 -9 -2 -10 -8 -2 -4 7 -29 11 -57 10 -27 -2 -56 2 -62 7 -9 6
-13 6 -13 -1 0 -6 -19 -9 -50 -6 -36 3 -50 0 -50 -8 0 -9 -2 -10 -8 -2 -4 7
-29 11 -57 10 -27 -2 -56 2 -62 7 -9 6 -13 6 -13 -1 0 -6 -19 -9 -50 -6 -36 3
-50 0 -50 -8 0 -8 -3 -9 -8 -3 -4 6 -29 11 -55 13 -37 2 -46 -1 -41 -10 6 -9
3 -9 -9 1 -9 7 -17 10 -17 6 0 -4 -6 -2 -14 4 -8 7 -17 8 -20 3 -3 -5 -29 -8
-57 -5 -40 3 -49 1 -43 -9 6 -10 4 -10 -9 1 -9 7 -17 10 -17 6 0 -4 -6 -2 -14
4 -9 7 -17 8 -20 2 -7 -10 -25 -9 -43 2 -7 5 -13 4 -13 -2 0 -5 -21 -8 -50 -5
-36 3 -50 0 -50 -8 0 -9 -2 -10 -8 -2 -4 7 -29 11 -57 10 -27 -2 -56 2 -62 7
-8 6 -13 6 -13 0 0 -8 -28 -9 -115 -3 -5 0 -3 5 5 10 13 9 13 10 0 10 -12 1
-11 3 3 14 10 8 18 17 18 20 -3 28 1 46 9 41 9 -6 14 8 11 28 0 4 4 7 10 7 5
0 7 5 4 10 -3 6 -2 10 2 10 5 0 14 9 21 21 11 17 11 20 0 14 -7 -3 -6 -1 2 7
9 7 15 20 15 28 0 17 17 40 27 34 3 -2 4 6 0 18 -3 14 -1 19 6 14 8 -5 10 -2
6 8 -3 9 -1 16 5 16 10 0 30 37 35 65 1 6 5 16 9 23 5 6 6 12 3 12 -3 0 1 8 9
18 8 9 15 21 14 26 0 5 4 12 11 16 6 4 12 16 13 28 0 11 4 19 8 16 4 -2 10 8
13 21 4 16 11 23 18 19 8 -5 9 -2 5 9 -4 10 -1 17 5 17 6 0 8 3 5 7 -4 3 1 12
11 19 14 11 14 13 2 14 -12 1 -11 3 3 14 10 8 18 18 19 23 0 22 28 73 40 73 9
0 9 3 -2 10 -13 8 -13 10 2 10 11 0 16 6 13 20 -2 11 1 20 7 20 5 0 7 7 4 16
-4 10 -2 13 6 8 8 -5 9 -2 5 10 -4 9 -3 15 2 12 9 -6 26 22 23 37 -1 4 3 7 8
7 6 0 10 7 10 16 0 9 5 12 12 8 8 -5 9 -2 5 9 -4 11 1 21 14 28 11 6 19 13 16
15 -2 3 9 18 25 34 18 18 26 35 22 42 -4 7 -4 10 0 6 8 -7 72 52 69 64 -2 4 1
8 7 8 5 0 23 13 40 30 16 16 30 27 30 25 0 -3 9 3 19 13 11 9 26 22 33 27 68
54 87 65 102 59 10 -4 18 0 22 10 3 9 12 16 20 16 8 0 14 5 14 10 0 6 3 9 8 9
19 -3 33 2 27 11 -3 6 1 7 9 4 9 -3 16 -2 16 3 0 5 9 9 19 10 11 1 38 11 60
21 23 11 38 15 34 9 -4 -7 0 -6 10 1 9 8 28 16 42 18 14 2 37 6 53 9 15 3 44
6 65 7 20 1 37 5 37 9 0 11 44 7 52 -6 5 -6 8 -2 8 8 0 12 4 16 13 10 6 -4 34
-6 60 -5 35 2 46 -1 41 -9 -5 -9 -3 -9 7 -3 20 13 241 15 233 2 -3 -5 3 -4 14
3 16 10 23 10 35 0 9 -6 18 -8 21 -3 3 5 44 9 91 10 53 0 83 -3 79 -10 -3 -5
3 -4 14 3 16 10 23 10 35 0 9 -7 18 -8 21 -3 3 5 39 9 80 9 53 0 73 -3 69 -11
-5 -8 -3 -8 8 0 19 15 161 16 152 0 -5 -8 -3 -8 8 0 19 15 161 16 152 0 -5 -8
-3 -8 8 0 18 14 182 17 173 3 -3 -6 3 -5 14 2 16 10 23 10 35 0 9 -6 18 -8 21
-3 3 5 44 9 91 10 58 0 83 -3 78 -10 -4 -7 -1 -8 8 -2 20 13 241 15 233 2 -3
-5 3 -4 14 3 16 10 23 10 35 0 9 -6 18 -8 21 -3 3 5 44 9 91 10 58 0 83 -3 78
-10 -4 -7 -1 -8 8 -2 20 13 241 15 233 2 -3 -5 3 -4 14 3 16 10 23 10 35 0 9
-6 18 -8 21 -3 3 5 44 9 91 10 53 0 83 -3 79 -10 -3 -5 3 -4 14 3 16 10 23 10
35 0 9 -7 18 -8 21 -3 8 13 149 11 158 -2 5 -8 8 -7 8 1 0 8 13 12 35 11 19
-1 35 -5 35 -9 0 -5 7 -5 17 -2 9 4 14 2 11 -3 -4 -5 13 -7 39 -5 26 2 43 -1
40 -6 -3 -5 3 -10 14 -10 11 -1 17 2 14 7 -3 5 7 3 21 -5 15 -8 31 -12 36 -9
4 3 8 1 8 -4 0 -8 14 -13 78 -27 7 -2 24 -11 38 -20 14 -9 28 -14 31 -11 3 3
11 0 19 -7 36 -32 45 -38 53 -32 5 3 12 1 16 -5 4 -6 11 -7 17 -4 7 5 8 2 4
-5 -5 -8 0 -14 13 -18 12 -3 21 -9 21 -14 0 -5 7 -9 15 -9 8 0 15 -4 15 -9 0
-5 10 -13 22 -17 26 -8 188 -169 207 -207 8 -15 21 -27 28 -27 8 0 11 -4 8
-10 -3 -5 -2 -10 3 -10 4 0 14 -16 22 -35 8 -19 17 -35 22 -35 4 0 8 -7 8 -15
0 -8 5 -15 11 -15 5 0 7 -5 3 -12 -4 -6 -3 -8 3 -5 6 4 17 -1 24 -10 10 -12
10 -14 2 -9 -21 12 -15 0 16 -33 16 -17 34 -31 40 -31 6 0 11 -4 11 -8 0 -11
56 -43 63 -36 3 3 11 2 19 -2 11 -7 53 -10 61 -4 9 7 49 5 53 -2 3 -5 12 -4
20 3 11 9 14 8 14 -2 0 -11 2 -11 10 1 9 13 10 13 10 0 0 -11 2 -12 8 -3 5 8
13 9 22 3 8 -5 21 -5 32 1 13 7 18 6 18 -3 0 -8 3 -9 8 -3 9 13 42 16 42 4 0
-6 10 -5 21 2 16 8 20 8 14 -1 -6 -9 -3 -9 12 -1 14 7 23 7 31 -1 9 -9 12 -9
12 1 0 7 5 9 12 5 16 -10 50 -10 65 -1 6 4 14 3 18 -3 4 -6 12 -7 24 0 12 6
22 5 29 -2 9 -9 12 -9 12 1 0 7 5 9 12 5 11 -7 53 -10 61 -4 8 6 65 5 61 -1
-2 -4 5 -11 17 -14 15 -5 18 -10 9 -15 -8 -5 -5 -15 14 -33 14 -14 26 -31 26
-37 0 -6 4 -9 9 -5 5 3 16 -4 24 -15 7 -11 17 -17 20 -13 4 3 7 1 7 -5 0 -7 9
-12 21 -12 11 0 17 -4 14 -10 -3 -6 1 -7 9 -4 9 3 16 1 16 -6 0 -6 4 -9 9 -5
5 3 12 1 16 -5 4 -7 13 -6 28 1 16 9 22 9 25 0 2 -6 8 -11 13 -11 6 0 8 4 5 9
-3 4 5 7 18 6 14 -2 36 3 50 11 15 7 24 8 20 3 -4 -6 5 -3 20 6 14 10 26 13
26 9 0 -5 5 -1 11 9 6 9 14 15 20 12 5 -4 9 0 9 7 0 8 12 25 28 38 15 14 27
32 27 40 0 8 6 20 13 26 8 6 15 23 15 37 0 15 5 27 11 27 6 0 5 4 -3 9 -9 6
-10 11 -2 15 7 5 8 13 1 25 -5 10 -7 21 -3 24 3 3 2 14 -2 24 -4 10 -8 29 -9
42 -1 14 -7 26 -14 29 -7 2 -12 8 -12 14 0 6 -13 23 -29 39 -16 15 -27 30 -23
33 3 3 -2 6 -11 6 -10 0 -17 5 -17 11 0 5 -4 7 -10 4 -6 -3 -10 -2 -10 2 0 5
-9 14 -21 21 -17 11 -20 11 -13 0 4 -7 -2 -5 -13 5 -14 13 -23 15 -28 7 -5 -8
-11 -8 -21 1 -11 9 -14 8 -14 -2 0 -11 -2 -11 -10 1 -9 13 -10 13 -10 0 0 -12
-2 -12 -9 -1 -6 9 -10 10 -16 2 -5 -9 -10 -9 -21 0 -9 7 -14 8 -14 1 0 -5 -10
-8 -22 -4 -14 3 -19 2 -14 -6 4 -7 2 -12 -3 -12 -6 0 -11 5 -11 11 0 6 -7 3
-16 -5 -8 -9 -20 -14 -25 -11 -5 4 -9 -1 -9 -9 0 -8 -5 -18 -12 -22 -7 -5 -8
-2 -3 7 4 8 -3 3 -17 -11 -13 -14 -23 -28 -21 -31 1 -4 -5 -13 -14 -20 -14
-12 -16 -12 -8 0 5 10 4 12 -4 7 -6 -4 -9 -11 -6 -16 3 -5 1 -11 -5 -15 -6 -4
-8 -11 -5 -16 4 -5 1 -9 -5 -9 -6 0 -8 -5 -5 -11 5 -7 -7 -9 -34 -6 -22 2 -45
-1 -51 -7 -8 -8 -13 -7 -20 3 -7 12 -11 12 -24 2 -10 -8 -16 -9 -16 -3 0 12
-39 10 -59 -2 -8 -5 -16 -3 -21 5 -7 10 -11 10 -24 0 -10 -8 -16 -9 -16 -3 0
12 -39 10 -59 -2 -8 -5 -16 -3 -21 5 -7 10 -11 10 -24 0 -10 -8 -16 -9 -16 -3
0 12 -39 10 -59 -2 -8 -5 -16 -3 -21 5 -7 10 -11 10 -24 0 -10 -8 -16 -9 -16
-3 0 11 -38 10 -57 -1 -6 -4 -15 -2 -19 4 -4 8 -9 7 -15 -2 -7 -11 -9 -10 -9
3 0 11 -5 15 -15 12 -8 -4 -15 -2 -15 4 0 5 -7 13 -16 16 -8 3 -12 2 -9 -4 13
-21 -6 -8 -45 30 -22 22 -38 40 -35 40 4 0 -1 7 -9 16 -9 8 -16 22 -16 30 0 8
-4 14 -10 14 -5 0 -10 6 -10 13 0 7 -9 19 -20 27 -11 8 -20 20 -20 26 0 6 -7
17 -15 24 -8 7 -12 17 -8 23 3 5 2 8 -3 5 -5 -2 -24 10 -42 29 -19 18 -31 33
-27 33 3 0 0 7 -9 15 -8 8 -20 15 -26 15 -6 0 -8 4 -5 10 3 5 -13 21 -35 35
-22 14 -38 30 -35 35 3 5 -4 11 -15 15 -11 4 -35 19 -52 35 -17 16 -35 27 -40
24 -4 -3 -8 3 -8 13 0 12 -3 14 -8 6 -6 -9 -12 -7 -22 7 -8 11 -20 20 -27 20
-7 0 -13 4 -13 10 0 5 -18 15 -40 21 -22 7 -40 16 -40 21 0 4 -3 7 -7 6 -5 -1
-18 3 -29 10 -12 6 -24 8 -28 5 -3 -3 -6 -1 -6 6 0 7 -4 9 -10 6 -5 -3 -10 -1
-10 6 0 9 -3 9 -14 0 -12 -10 -17 -8 -26 9 -9 17 -14 19 -26 9 -11 -9 -14 -9
-14 0 0 8 -11 11 -27 9 -20 -2 -27 1 -25 11 3 12 1 12 -14 0 -16 -13 -17 -12
-11 5 6 14 4 16 -5 9 -7 -5 -26 -8 -43 -6 -16 2 -45 5 -62 5 -18 1 -33 6 -33
12 0 6 -5 4 -10 -4 -8 -12 -10 -12 -10 -1 0 10 -3 11 -14 2 -9 -7 -17 -8 -20
-2 -3 5 -16 7 -28 3 -16 -4 -19 -2 -13 9 7 11 6 12 -6 4 -16 -12 -128 -13
-146 -2 -6 4 -14 4 -16 0 -7 -10 -108 -10 -124 0 -7 5 -13 4 -13 -2 0 -5 -21
-8 -50 -5 -36 3 -50 0 -50 -8 0 -9 -2 -10 -8 -2 -4 7 -29 11 -57 10 -27 -2
-56 2 -62 7 -9 6 -13 6 -13 -1 0 -6 -19 -9 -50 -6 -36 3 -50 0 -50 -8 0 -9 -2
-10 -8 -2 -4 7 -29 11 -57 10 -27 -2 -56 2 -62 7 -9 6 -13 6 -13 -1 0 -6 -19
-9 -50 -6 -36 3 -50 0 -50 -8 0 -9 -2 -10 -8 -2 -4 7 -29 11 -57 10 -27 -2
-56 2 -62 7 -9 6 -13 6 -13 -1 0 -6 -19 -9 -50 -6 -36 3 -50 0 -50 -8 0 -9 -2
-10 -8 -2 -4 7 -29 11 -57 10 -27 -2 -56 2 -62 7 -9 6 -13 6 -13 -1 0 -6 -19
-9 -50 -6 -36 3 -50 0 -50 -8 0 -9 -3 -10 -8 -2 -4 7 -46 11 -110 10 -57 -1
-106 3 -109 7 -3 4 -10 4 -16 0 -14 -10 -128 -10 -144 0 -6 4 -14 4 -16 0 -6
-10 -129 -9 -144 0 -7 4 -14 4 -16 0 -6 -10 -129 -9 -144 0 -7 4 -14 3 -17 -2
-7 -10 -25 -9 -43 2 -7 5 -13 4 -13 -2 0 -5 -21 -8 -50 -5 -36 3 -50 0 -50 -8
0 -9 -2 -10 -8 -2 -4 7 -29 11 -57 10 -27 -2 -56 2 -62 7 -9 6 -13 6 -13 -1 0
-6 -19 -9 -50 -6 -36 3 -50 0 -50 -8 0 -9 -2 -10 -8 -2 -4 7 -29 11 -57 10
-27 -2 -56 2 -62 7 -9 6 -13 6 -13 -1z m4720 -705 c0 -5 5 -5 10 -2 6 3 10 1
10 -5 0 -6 5 -8 10 -5 6 3 10 1 10 -6 0 -6 8 -18 18 -26 10 -9 11 -11 2 -7
-11 6 -10 2 3 -13 20 -23 23 -48 5 -37 -10 6 -10 5 -1 -7 10 -12 11 -33 4 -56
-1 -2 -1 -6 0 -9 0 -4 -10 -12 -23 -18 -13 -7 -23 -19 -22 -27 1 -15 -10 -18
-89 -20 -37 -1 -51 3 -66 19 -10 12 -21 19 -25 15 -3 -3 -6 1 -6 10 0 10 -5
17 -11 17 -5 0 -7 5 -4 10 3 6 -2 10 -12 11 -10 0 -13 3 -5 6 6 2 12 11 12 19
0 9 -5 12 -12 8 -7 -5 -8 -3 -2 7 5 8 10 24 12 37 3 27 32 63 44 56 5 -3 7 0
6 8 -2 7 3 12 10 11 6 -2 12 0 12 5 0 4 25 7 55 7 30 0 55 -4 55 -8z m-2158
-897 c13 -13 22 -28 21 -32 -2 -5 1 -8 6 -8 7 0 7 -80 0 -127 -2 -12 -13 -17
-31 -14 -5 0 -8 -5 -8 -13 0 -8 -7 -17 -16 -20 -23 -9 -124 -7 -124 2 0 4 -9
13 -21 20 -15 10 -19 10 -14 1 5 -8 4 -10 -3 -5 -7 4 -12 14 -12 22 0 9 -5 12
-12 8 -7 -4 -8 -3 -4 5 4 6 2 18 -4 26 -10 12 -10 15 0 15 9 0 9 4 -1 17 -12
14 -12 17 0 21 11 4 11 6 0 13 -11 7 -11 9 -1 9 7 0 10 5 7 10 -3 6 -1 10 6
10 7 0 10 3 6 6 -3 3 5 16 18 29 14 12 23 24 21 26 -3 2 29 4 69 4 66 0 77 -3
97 -25z m2408 -23 c0 15 30 5 48 -16 11 -13 12 -13 6 -1 -11 23 53 -45 66 -70
8 -15 8 -20 1 -16 -6 4 -11 3 -11 -3 0 -5 5 -13 10 -16 6 -4 7 -13 2 -23 -5
-9 -8 -24 -8 -32 1 -17 -35 -56 -46 -52 -5 1 -8 -3 -8 -9 0 -5 -4 -7 -10 -4
-5 3 -10 1 -10 -5 0 -7 -6 -10 -14 -7 -8 3 -17 1 -20 -6 -5 -9 -7 -9 -12 0 -3
7 -11 10 -17 8 -7 -3 -30 2 -52 10 -22 8 -33 14 -25 15 12 0 11 3 -3 11 -9 6
-15 15 -11 20 3 5 0 8 -7 7 -7 -2 -13 6 -14 17 0 11 -4 25 -8 32 -4 6 -3 14 2
18 5 3 8 14 6 25 -2 11 1 20 6 20 6 0 8 4 5 9 -3 4 2 17 10 27 9 10 13 12 9 4
-4 -8 2 -5 12 8 22 27 74 44 85 28 5 -8 8 -7 8 1z m-6788 -760 c23 1 38 -3 38
-10 0 -8 3 -8 8 -2 9 13 35 19 28 6 -3 -5 11 -9 32 -8 20 0 50 -4 66 -8 23 -6
27 -5 21 6 -8 12 -6 12 8 0 10 -7 42 -15 73 -16 31 -2 61 -8 67 -14 7 -7 16
-7 29 0 10 5 18 6 18 2 0 -9 37 -13 128 -12 41 0 62 -4 62 -12 0 -6 8 -9 19
-6 12 3 22 -1 25 -10 3 -8 10 -12 14 -9 5 3 18 -2 28 -12 10 -9 31 -23 46 -31
14 -7 29 -22 31 -33 3 -11 10 -17 16 -14 5 4 12 -3 16 -14 3 -11 11 -20 17
-20 6 0 8 -3 5 -7 -4 -3 -2 -12 4 -20 6 -7 8 -13 3 -13 -5 0 -2 -5 6 -10 11
-7 12 -10 2 -10 -10 0 -9 -4 3 -16 9 -10 14 -25 12 -36 -3 -10 -1 -16 4 -12 8
4 14 -17 10 -38 0 -5 4 -8 9 -8 6 0 10 -11 10 -25 0 -14 5 -25 11 -25 5 0 7
-4 4 -10 -3 -5 0 -10 7 -10 9 0 9 -3 -2 -10 -12 -7 -12 -10 -1 -10 7 0 11 -6
7 -15 -3 -8 -1 -15 4 -15 6 0 10 -9 10 -21 0 -11 4 -18 9 -15 5 3 8 -6 9 -20
0 -15 3 -29 8 -33 11 -7 17 -29 16 -54 0 -10 4 -15 10 -11 7 5 9 0 6 -14 -4
-12 -2 -22 4 -22 5 0 6 -5 3 -10 -4 -6 -12 -7 -18 -3 -9 5 -9 3 0 -8 15 -19
13 -31 -6 -47 -12 -10 -12 -12 -1 -6 13 7 13 6 1 -9 -8 -10 -16 -16 -18 -13
-2 2 -16 -8 -30 -22 -19 -19 -28 -23 -31 -13 -4 11 -6 11 -13 0 -6 -10 -9 -10
-9 -2 0 9 -7 10 -25 3 -14 -5 -25 -6 -25 -2 0 4 -14 8 -32 9 -17 1 -34 6 -37
10 -3 5 -17 10 -31 11 -14 2 -31 9 -39 15 -12 10 -13 9 -6 -3 7 -12 6 -13 -7
-3 -8 7 -18 10 -21 6 -4 -3 -7 -1 -7 6 0 7 -5 9 -11 5 -6 -3 -15 0 -20 7 -7
11 -9 11 -9 1 0 -10 -4 -10 -16 2 -17 17 -39 22 -29 6 3 -5 -7 -3 -22 5 -15 8
-36 15 -45 15 -9 0 -19 4 -23 10 -3 5 -12 7 -20 3 -9 -3 -21 -1 -28 4 -6 5
-19 9 -27 8 -8 0 -18 3 -21 7 -3 4 -17 9 -32 10 -15 1 -27 7 -27 13 0 5 -5 3
-10 -5 -6 -9 -10 -10 -10 -3 0 6 -9 10 -20 8 -11 -2 -19 1 -17 7 1 6 -8 12
-21 14 -17 3 -21 0 -16 -8 4 -7 -1 -6 -12 3 -10 9 -25 14 -33 11 -9 -3 -11 0
-6 8 6 10 4 12 -8 7 -9 -3 -19 -2 -23 4 -3 5 -14 7 -25 4 -10 -4 -19 -2 -19 3
0 5 -8 9 -17 9 -39 0 -54 3 -49 11 3 4 -8 7 -25 6 -16 -1 -29 2 -29 6 0 5 -9
7 -20 5 -11 -2 -20 0 -20 6 0 5 -8 9 -18 9 -10 0 -24 6 -31 13 -11 10 -12 9
-6 -3 7 -12 6 -13 -6 -3 -8 7 -34 14 -56 15 -23 2 -39 6 -36 11 2 4 -6 7 -19
7 -13 0 -30 6 -37 13 -11 10 -12 9 -6 -3 8 -13 6 -13 -8 -1 -9 7 -24 11 -32 7
-9 -3 -18 1 -21 9 -4 8 -10 12 -15 9 -6 -3 -17 0 -26 8 -12 9 -15 9 -9 1 5 -9
2 -11 -8 -7 -9 3 -16 11 -16 16 0 6 -7 8 -15 4 -21 -8 -49 46 -32 64 9 9 9 11
0 6 -20 -11 -20 27 0 63 22 40 41 61 57 61 6 0 8 5 5 10 -3 6 -1 10 5 10 6 0
8 5 5 10 -3 6 1 10 9 10 8 0 18 5 22 12 5 7 3 8 -6 3 -7 -4 19 25 59 64 39 40
71 77 71 82 0 6 4 8 9 5 5 -3 12 1 15 10 3 8 10 12 16 9 5 -3 10 -1 10 4 0 6
3 10 8 9 13 -2 42 14 37 22 -2 4 7 5 20 2 16 -3 25 0 25 9 0 7 3 9 7 6 3 -4
13 -1 21 6 13 10 14 9 7 -3 -7 -12 -6 -13 7 -3 8 7 18 10 21 6 4 -3 7 -1 7 6
0 7 5 9 12 5 7 -5 30 -8 50 -7z m6543 -1219 c4 0 12 6 16 14 6 8 9 9 9 1 0 -6
11 -10 25 -8 14 1 25 -2 25 -8 0 -5 14 -22 31 -37 27 -23 30 -30 20 -48 -9
-17 -9 -22 0 -22 8 0 8 -4 2 -12 -6 -7 -9 -25 -8 -40 1 -19 -4 -28 -18 -32
-12 -3 -17 -10 -14 -20 4 -10 1 -13 -9 -9 -8 3 -14 -1 -14 -9 0 -10 -12 -14
-37 -13 -21 0 -41 -4 -45 -10 -5 -6 -8 -6 -8 3 0 6 -9 12 -19 12 -10 0 -22 7
-25 16 -3 8 -10 13 -15 9 -5 -3 -12 4 -16 15 -3 11 -11 20 -17 20 -5 0 -7 7
-4 16 3 8 2 12 -4 9 -5 -3 -7 9 -5 30 4 27 2 34 -7 29 -7 -4 -5 1 4 12 9 10
16 21 15 24 -4 12 61 66 77 64 9 -1 16 3 16 9 0 8 3 7 9 -1 4 -8 12 -14 16
-14z m-2557 -234 c13 0 27 -6 30 -11 4 -6 15 -9 25 -7 11 1 16 0 13 -3 -3 -3
2 -12 12 -20 9 -8 11 -12 5 -8 -7 3 -13 1 -13 -4 0 -6 7 -11 16 -11 10 0 14
-6 11 -15 -4 -8 -2 -17 4 -20 6 -4 6 -13 0 -23 -6 -10 -6 -23 0 -34 6 -12 6
-18 -1 -18 -5 0 -9 -3 -8 -7 4 -12 -28 -54 -35 -46 -4 3 -7 -1 -7 -11 0 -9 -4
-14 -10 -11 -5 3 -10 1 -10 -4 0 -6 -21 -11 -50 -11 -28 0 -50 5 -50 10 0 6
-7 10 -16 8 -9 -2 -21 6 -28 17 -6 11 -17 24 -24 30 -16 13 -21 106 -7 123 5
7 18 22 28 33 9 10 14 19 10 19 -5 1 8 9 27 19 19 10 40 15 45 12 6 -3 21 -6
33 -7z m-4088 -276 c0 -8 3 -9 8 -3 9 13 42 15 42 3 0 -6 6 -5 15 2 12 10 15
10 15 0 0 -10 4 -10 16 1 13 10 17 10 25 -2 7 -12 9 -12 9 1 0 10 3 11 11 3 8
-8 20 -8 35 -3 17 7 24 6 24 -3 0 -8 3 -8 9 2 5 8 11 9 15 3 4 -7 17 -7 36 -2
21 6 30 5 30 -3 0 -7 4 -6 10 3 9 13 11 13 20 0 5 -8 10 -10 10 -5 0 6 9 11
20 11 11 0 20 -4 20 -9 0 -5 7 -4 15 3 12 10 15 10 15 0 0 -10 4 -10 16 1 13
10 17 10 25 -2 7 -12 9 -12 9 1 0 10 3 11 11 3 7 -7 21 -8 40 -3 23 7 32 5 42
-11 8 -10 16 -18 18 -16 2 1 1 -2 -3 -7 -4 -5 -2 -18 3 -29 8 -15 8 -18 -1
-12 -9 5 -10 1 -5 -15 6 -17 4 -21 -6 -14 -11 6 -12 4 -4 -7 18 -24 17 -65 -1
-80 -22 -18 -164 -23 -165 -6 0 7 -4 3 -9 -8 -5 -11 -9 -15 -9 -10 -1 7 -26 9
-67 7 -44 -2 -71 1 -82 10 -8 7 -13 8 -9 2 9 -15 -43 -16 -61 -1 -9 7 -11 6
-6 -8 6 -14 4 -16 -6 -10 -8 5 -47 8 -87 8 -40 0 -73 4 -73 9 0 4 -8 8 -17 8
-15 0 -16 2 -3 10 13 9 13 10 0 10 -12 0 -15 13 -16 58 0 31 5 60 10 64 7 5 6
8 -2 8 -10 0 -10 3 2 15 8 8 19 15 25 15 6 0 11 5 11 10 0 6 5 10 10 10 6 0
10 -6 10 -12z m786 3 c11 9 14 9 14 -1 0 -9 3 -10 13 -1 14 11 25 4 67 -48 14
-17 17 -28 9 -37 -7 -8 -7 -14 1 -19 8 -5 7 -11 -2 -23 -10 -12 -10 -14 -1 -8
9 5 11 2 7 -8 -3 -9 -11 -14 -17 -13 -6 1 -11 -4 -12 -10 0 -7 -4 -13 -9 -12
-5 0 -12 -4 -15 -10 -9 -14 -70 -21 -77 -10 -3 5 -10 7 -15 4 -5 -4 -9 -1 -9
5 0 7 -6 10 -13 7 -7 -3 -19 4 -26 15 -7 11 -8 17 -2 14 7 -4 8 -1 5 8 -3 9
-10 16 -15 16 -6 0 -5 10 2 21 8 15 8 19 0 15 -8 -5 -8 0 -2 16 4 13 6 29 4
36 -3 7 -1 11 4 10 4 -2 8 1 8 5 0 13 59 36 63 25 2 -5 10 -4 18 3z m5308
-226 c34 4 58 -4 50 -16 -3 -5 4 -9 14 -9 33 0 74 -105 48 -122 -8 -6 -6 -11
4 -18 11 -7 11 -10 2 -10 -7 0 -10 -4 -7 -10 3 -5 1 -10 -5 -10 -6 0 -8 -5 -4
-12 5 -8 2 -9 -9 -5 -11 4 -17 1 -17 -7 0 -8 -12 -21 -26 -31 -15 -9 -24 -12
-20 -7 4 7 -5 10 -23 10 -17 -1 -28 -5 -24 -11 3 -5 -4 -4 -16 2 -11 7 -21 8
-21 4 0 -4 -7 1 -15 11 -11 14 -15 16 -15 5 -1 -9 -4 -7 -12 6 -6 11 -20 29
-30 39 -12 14 -14 22 -7 27 8 5 8 8 0 14 -9 5 -9 11 1 23 10 12 10 14 1 8 -7
-4 -13 -3 -13 1 0 5 6 15 13 22 10 11 10 13 0 7 -7 -4 -13 -2 -13 3 0 6 3 11
8 11 4 0 16 13 27 29 10 16 22 28 26 26 3 -3 15 4 25 14 10 10 21 15 24 11 3
-4 18 -6 34 -5z m1044 -882 c12 -10 12 -12 2 -8 -8 4 -6 0 4 -9 10 -8 22 -14
25 -11 4 2 8 -8 9 -23 1 -14 7 -29 13 -33 8 -5 8 -8 0 -13 -15 -10 -14 -29 2
-20 10 6 10 4 0 -7 -7 -7 -13 -24 -13 -37 0 -13 -4 -21 -9 -17 -5 3 -12 -4
-16 -15 -4 -11 -11 -18 -16 -15 -5 4 -12 -1 -15 -9 -3 -9 -10 -13 -15 -10 -5
3 -9 1 -9 -4 0 -15 -74 -8 -88 8 -12 13 -13 13 -7 0 5 -12 4 -12 -7 1 -7 9
-20 14 -28 11 -8 -3 -12 -1 -8 3 9 10 -11 37 -22 30 -5 -3 -6 5 -2 17 4 16 2
19 -8 13 -9 -6 -11 -4 -5 6 14 22 15 60 2 52 -9 -5 -9 -3 -1 8 6 8 10 22 9 32
-2 9 5 22 16 28 11 5 16 15 13 21 -4 6 -3 9 2 6 5 -3 18 -2 29 3 31 13 124 7
143 -8z"/>
<path d="M7450 5272 c0 -4 -28 -7 -62 -7 -72 0 -85 -3 -112 -27 -10 -10 -23
-15 -28 -12 -5 3 -7 0 -6 -8 2 -7 -2 -12 -9 -11 -6 2 -15 -6 -18 -17 -4 -11
-10 -20 -15 -20 -4 0 -15 -16 -24 -35 -9 -19 -21 -35 -27 -35 -6 0 -7 -4 -4
-10 3 -6 -1 -7 -9 -4 -10 4 -16 1 -16 -7 0 -9 -3 -10 -8 -4 -10 14 -123 15
-114 1 3 -6 -2 -5 -12 3 -15 13 -19 13 -27 0 -5 -8 -9 -9 -9 -3 0 13 -102 13
-111 1 -3 -5 -13 -1 -23 8 -9 9 -16 12 -16 7 0 -5 -13 -8 -30 -7 -17 1 -30 -2
-30 -9 0 -6 -5 -4 -10 4 -9 13 -11 13 -20 0 -5 -8 -10 -10 -10 -4 0 6 -20 10
-44 10 -26 0 -42 -4 -39 -9 4 -6 1 -7 -8 -2 -21 14 -100 14 -92 1 4 -6 -1 -5
-11 3 -15 13 -19 13 -27 0 -5 -8 -9 -9 -9 -3 0 13 -102 13 -111 1 -3 -5 -13
-1 -23 8 -9 9 -16 12 -16 7 0 -5 -13 -8 -30 -7 -17 1 -30 -2 -30 -9 0 -6 -5
-4 -10 4 -9 13 -11 13 -20 0 -5 -8 -10 -10 -10 -4 0 6 -20 10 -44 10 -26 0
-42 -4 -39 -9 4 -6 1 -7 -8 -1 -18 11 -82 12 -90 1 -3 -5 -13 -1 -23 8 -9 9
-16 12 -16 7 0 -5 -13 -8 -30 -7 -17 1 -30 -2 -30 -9 0 -6 -5 -4 -10 4 -9 13
-11 13 -20 0 -5 -8 -10 -10 -10 -4 0 6 -20 10 -44 10 -26 0 -42 -4 -39 -9 4
-6 1 -7 -8 -1 -20 12 -109 12 -109 -1 0 -5 -5 -3 -10 5 -9 13 -11 13 -20 0 -5
-8 -10 -10 -10 -4 0 14 -62 14 -72 -1 -5 -6 -8 -6 -8 3 0 6 -7 12 -16 12 -9 0
-12 -5 -8 -12 5 -7 3 -8 -7 -2 -21 13 -39 14 -39 1 0 -8 -3 -8 -8 -2 -10 15
-113 15 -105 1 4 -6 -1 -5 -11 3 -15 13 -19 13 -27 0 -5 -8 -9 -9 -9 -3 0 13
-102 13 -111 1 -3 -5 -13 -1 -23 8 -9 9 -16 12 -16 7 0 -5 -13 -8 -30 -7 -17
1 -30 -2 -30 -9 0 -6 -5 -4 -10 4 -9 13 -11 13 -20 0 -5 -8 -10 -10 -10 -4 0
6 -20 10 -44 10 -26 0 -42 -4 -39 -9 4 -6 1 -7 -8 -2 -21 14 -100 14 -92 1 4
-6 -1 -5 -11 3 -15 13 -19 13 -27 0 -5 -8 -9 -9 -9 -3 0 13 -130 13 -130 -1 0
-5 -5 -3 -10 5 -9 13 -11 13 -20 0 -5 -8 -10 -10 -10 -4 0 14 -62 14 -72 -1
-5 -6 -8 -6 -8 3 0 6 -7 12 -16 12 -9 0 -12 -5 -8 -12 5 -7 3 -8 -7 -2 -21 13
-39 14 -39 1 0 -8 -3 -9 -8 -1 -8 12 -94 13 -103 1 -3 -5 -13 -1 -23 8 -9 9
-16 12 -16 7 0 -5 -13 -8 -30 -7 -17 1 -30 -2 -30 -9 0 -6 -5 -4 -10 4 -9 13
-11 13 -20 0 -5 -8 -10 -10 -10 -4 0 6 -20 10 -44 10 -26 0 -42 -4 -39 -9 4
-6 1 -7 -8 -1 -18 11 -82 12 -90 1 -3 -5 -13 -1 -23 8 -9 9 -16 12 -16 7 0 -5
-13 -8 -30 -7 -17 1 -30 -2 -30 -9 0 -6 -5 -4 -10 4 -9 13 -11 13 -20 0 -5 -8
-10 -10 -10 -4 0 6 -20 10 -44 10 -26 0 -42 -4 -39 -9 4 -6 1 -7 -8 -2 -21 14
-100 14 -92 1 4 -6 -1 -5 -11 3 -15 13 -19 13 -27 0 -5 -8 -9 -9 -9 -3 0 13
-102 13 -111 1 -3 -5 -13 -1 -23 8 -9 9 -16 12 -16 7 0 -5 -13 -8 -30 -7 -17
1 -30 -2 -30 -9 0 -6 -5 -4 -10 4 -9 13 -11 13 -20 0 -5 -8 -10 -10 -10 -4 0
6 -20 10 -44 10 -26 0 -42 -4 -39 -9 4 -6 1 -7 -8 -2 -21 14 -100 14 -92 1 4
-6 -1 -5 -11 3 -15 13 -19 13 -27 0 -5 -8 -9 -9 -9 -4 0 6 -25 11 -59 11 -38
0 -57 -4 -53 -11 3 -5 -2 -4 -12 4 -15 13 -19 13 -27 0 -5 -8 -9 -9 -9 -3 0
12 -98 13 -118 0 -7 -4 -12 -2 -12 4 0 8 -6 8 -20 0 -11 -6 -24 -9 -29 -6 -4
3 -23 -12 -41 -34 -18 -22 -37 -37 -42 -34 -5 3 -8 2 -7 -3 1 -4 0 -11 -1 -15
-4 -13 -7 -27 -9 -39 0 -5 -5 -7 -11 -4 -5 3 -10 1 -10 -4 0 -6 5 -11 10 -11
6 0 10 -5 10 -11 0 -5 -4 -8 -8 -5 -10 6 -10 -40 0 -50 4 -4 3 -13 -3 -21 -9
-9 -8 -13 0 -13 6 0 11 -5 11 -11 0 -5 -6 -7 -12 -4 -7 4 -4 -1 6 -9 13 -10
15 -16 7 -16 -10 0 -11 -3 -2 -13 6 -8 8 -17 4 -20 -3 -4 -1 -7 6 -7 7 0 9 -4
6 -10 -3 -5 0 -10 7 -10 9 0 9 -3 -2 -10 -12 -8 -12 -10 -1 -10 8 0 11 -3 8
-7 -4 -3 0 -17 9 -31 9 -13 11 -21 4 -17 -8 5 -8 1 1 -13 7 -12 16 -19 19 -17
3 2 5 -9 4 -26 -1 -16 2 -29 7 -29 5 0 9 -10 9 -22 0 -43 3 -57 13 -51 6 4 8
-1 4 -11 -4 -10 -3 -15 3 -11 9 6 14 -8 11 -27 0 -5 3 -8 9 -8 12 0 60 -48 60
-60 0 -6 12 -10 26 -10 17 0 23 -4 18 -12 -5 -8 -2 -9 9 -5 9 3 22 1 29 -6 16
-15 30 -17 141 -20 53 -1 87 2 87 8 0 7 3 7 8 0 4 -5 25 -10 47 -10 22 0 43 5
47 10 4 6 8 1 8 -10 0 -15 2 -17 9 -6 5 8 18 12 30 8 12 -3 21 -1 21 5 0 5 5
6 12 2 18 -12 58 -11 58 1 0 6 3 7 8 0 9 -13 42 -16 42 -3 0 5 5 6 11 2 18
-11 179 -10 179 1 0 7 3 7 8 0 4 -5 25 -10 47 -10 22 0 43 5 47 10 4 6 8 1 8
-10 0 -15 2 -17 9 -6 5 8 18 12 30 8 12 -3 21 -1 21 5 0 5 5 6 12 2 18 -12 58
-11 58 1 0 6 3 7 8 0 9 -13 42 -16 42 -3 0 5 5 6 11 2 18 -11 179 -10 179 1 0
7 3 7 8 0 4 -5 25 -10 47 -10 22 0 43 5 47 10 4 6 8 1 8 -10 0 -15 2 -17 9 -6
5 8 18 12 30 8 12 -3 21 -1 21 5 0 5 5 6 12 2 18 -12 58 -11 58 1 0 6 3 7 8 0
9 -13 42 -16 42 -3 0 5 5 6 11 2 18 -11 179 -10 179 1 0 7 3 7 8 0 4 -5 25
-10 47 -10 22 0 43 5 47 10 4 6 8 1 8 -10 0 -15 2 -17 9 -6 5 8 18 12 30 8 12
-3 21 -1 21 5 0 5 5 6 12 2 18 -12 58 -11 58 1 0 6 3 7 8 0 9 -13 42 -16 42
-3 0 5 5 6 11 2 18 -11 179 -10 179 1 0 7 3 7 8 0 4 -5 25 -10 47 -10 22 0 43
5 47 10 4 6 8 1 8 -10 0 -15 2 -17 9 -6 5 8 18 12 30 8 12 -3 21 -1 21 5 0 5
5 6 12 2 18 -12 58 -11 58 1 0 6 3 7 8 0 9 -13 42 -16 42 -3 0 5 5 6 11 2 18
-11 179 -10 179 1 0 7 3 7 8 0 4 -5 25 -10 47 -10 22 0 43 5 47 10 4 6 8 1 8
-10 0 -15 2 -17 9 -6 5 8 18 12 30 8 12 -3 21 -1 21 5 0 5 5 6 12 2 18 -12 58
-11 58 1 0 6 3 7 8 0 9 -13 42 -16 42 -3 0 5 5 6 11 2 18 -11 179 -10 179 1 0
7 3 7 8 0 4 -5 16 -10 27 -10 12 0 20 -7 20 -17 0 -20 35 -59 46 -52 5 3 9 -4
9 -14 0 -11 7 -23 16 -26 8 -3 12 -10 9 -16 -4 -6 5 -10 19 -10 14 0 29 -6 33
-12 4 -7 17 -20 27 -28 18 -13 19 -13 11 0 -8 13 -6 13 8 2 9 -8 21 -11 27 -7
5 3 10 2 10 -3 0 -5 28 -8 63 -5 87 5 87 5 87 15 0 5 4 7 9 3 5 -3 12 -1 16 5
4 6 10 8 15 5 5 -3 12 0 16 6 5 8 3 9 -7 4 -12 -8 -12 -6 0 8 7 9 16 15 20 12
9 -5 41 31 41 46 0 5 3 8 8 6 9 -6 33 19 25 27 -4 3 -1 6 6 6 7 0 9 5 6 10 -3
6 -2 10 4 10 5 0 8 11 6 25 -1 17 3 25 14 25 9 0 12 3 6 8 -6 4 -11 16 -11 27
0 11 5 23 11 27 6 5 6 8 -2 8 -6 0 -10 8 -8 18 1 9 -3 23 -9 31 -8 11 -8 13 1
8 7 -5 9 0 6 13 -3 11 -10 17 -16 13 -5 -3 -7 -1 -4 5 9 13 -2 44 -13 37 -4
-3 -11 6 -14 20 -4 14 -10 25 -14 25 -4 0 -18 10 -32 21 -14 11 -19 17 -11 13
9 -5 12 -3 7 4 -4 7 -14 12 -22 12 -8 0 -17 7 -21 16 -3 9 -13 14 -24 11 -10
-3 -20 2 -24 11 -5 13 -8 14 -14 3 -6 -9 -11 -10 -15 -2 -5 8 -13 8 -28 0 -15
-8 -19 -8 -14 0 5 8 0 8 -18 1 -19 -7 -26 -6 -26 3 0 8 -3 8 -9 -2 -5 -7 -10
-9 -12 -3 -5 13 -90 -26 -107 -50 -7 -10 -19 -15 -25 -12 -7 4 -9 4 -5 -1 4
-4 -2 -18 -15 -30 -12 -11 -31 -32 -42 -45 l-20 -25 20 15 c20 15 20 14 1 -8
-11 -12 -21 -20 -24 -17 -3 3 -11 0 -19 -6 -9 -8 -13 -8 -13 0 0 7 -8 8 -25 1
-14 -5 -25 -6 -25 -2 0 4 -13 7 -30 8 -16 1 -27 -2 -25 -6 2 -4 -2 -7 -10 -7
-8 0 -15 4 -15 9 0 11 -23 6 -32 -7 -5 -6 -8 -5 -8 3 0 8 -5 10 -12 6 -16 -10
-58 -12 -58 -2 0 4 -11 3 -25 -2 -14 -5 -25 -6 -25 -2 0 4 -13 7 -30 8 -16 1
-27 -3 -24 -8 8 -12 -19 -5 -28 7 -5 6 -8 4 -8 -5 0 -12 -2 -12 -9 -1 -7 10
-13 11 -30 2 -11 -7 -21 -8 -21 -3 0 11 -30 9 -49 -2 -8 -5 -16 -3 -21 5 -7
10 -12 10 -26 -2 -16 -12 -17 -12 -9 1 8 13 7 13 -8 1 -14 -11 -17 -11 -17 0
0 11 -2 11 -10 -1 -6 -9 -10 -10 -10 -3 0 13 -38 12 -59 -1 -8 -5 -16 -3 -21
5 -7 10 -12 10 -26 -2 -16 -12 -17 -12 -9 1 8 13 7 13 -8 1 -14 -11 -17 -11
-17 0 0 11 -2 11 -10 -1 -5 -8 -10 -10 -10 -5 0 6 -18 10 -39 10 -22 0 -38 -2
-36 -6 2 -3 -2 -6 -10 -6 -8 0 -15 4 -15 9 0 11 -23 6 -32 -7 -5 -6 -8 -5 -8
3 0 8 -5 10 -12 6 -16 -10 -58 -12 -58 -2 0 4 -11 3 -25 -2 -14 -5 -25 -6 -25
-2 0 4 -13 7 -30 8 -16 1 -27 -2 -25 -6 2 -4 -2 -7 -10 -7 -8 0 -15 4 -15 9 0
11 -23 6 -32 -7 -5 -6 -8 -5 -8 3 0 8 -5 10 -12 6 -16 -10 -58 -12 -58 -2 0 4
-11 3 -25 -2 -14 -5 -25 -6 -25 -2 0 4 -13 7 -30 8 -16 1 -27 -3 -24 -8 8 -12
-19 -5 -28 7 -5 6 -8 4 -8 -5 0 -12 -2 -12 -9 -1 -7 10 -13 11 -30 2 -11 -7
-21 -8 -21 -3 0 11 -30 9 -49 -2 -8 -5 -16 -3 -21 5 -7 10 -12 10 -23 1 -19
-16 -53 8 -44 32 4 9 1 16 -5 16 -7 0 -6 5 2 15 7 8 8 15 3 15 -5 0 -10 7 -10
15 0 8 5 15 10 15 5 0 4 7 -3 15 -10 12 -10 15 1 15 11 0 11 2 -1 10 -8 5 -10
10 -5 10 6 0 11 9 11 20 0 11 -4 20 -8 20 -4 0 -3 11 2 25 6 16 6 25 -1 25 -6
0 -6 8 2 21 9 17 8 20 -3 13 -11 -6 -11 -5 1 9 10 13 10 17 1 17 -10 0 -10 3
0 15 10 12 10 15 0 15 -10 0 -10 3 0 15 9 11 9 15 1 15 -8 0 -7 8 3 28 11 20
21 27 43 26 16 0 35 -4 41 -8 7 -4 12 -2 12 6 0 10 3 9 9 -1 8 -12 12 -12 25
-2 12 11 16 11 16 1 0 -10 3 -10 15 0 8 7 15 8 15 3 0 -5 9 -9 20 -9 11 0 20
5 20 11 0 5 5 3 10 -5 9 -13 11 -13 20 0 6 9 10 10 10 3 0 -8 9 -9 29 -3 19 5
33 4 40 -3 8 -8 11 -7 11 3 0 13 2 13 9 1 8 -12 12 -12 25 -2 12 11 16 11 16
1 0 -10 3 -10 15 0 8 7 15 8 15 3 0 -5 9 -9 20 -9 11 0 20 5 20 11 0 5 5 3 10
-5 9 -13 11 -13 20 0 6 9 10 10 10 3 0 -8 9 -9 29 -3 19 5 33 4 40 -3 8 -8 11
-7 11 3 0 13 2 13 9 1 8 -12 12 -12 25 -2 12 11 16 11 16 1 0 -10 3 -10 15 0
8 7 15 8 15 3 0 -5 9 -9 20 -9 11 0 20 5 20 11 0 5 5 3 10 -5 9 -13 11 -13 20
0 6 9 10 10 10 3 0 -8 9 -9 29 -3 19 5 33 4 40 -3 8 -8 11 -7 11 3 0 13 2 13
9 1 8 -12 12 -12 25 -2 12 11 16 11 16 1 0 -10 3 -10 15 0 8 7 15 8 15 3 0 -5
9 -9 20 -9 11 0 20 5 20 11 0 5 5 3 10 -5 9 -13 11 -13 20 0 6 9 10 10 10 3 0
-8 9 -9 30 -3 19 5 32 5 36 -2 4 -6 10 -5 15 3 7 12 9 12 9 0 0 -11 3 -11 15
-1 8 7 15 8 15 3 0 -5 7 -10 15 -10 8 0 15 5 15 10 0 5 6 5 13 -2 10 -8 17 -7
25 1 7 7 12 8 12 2 0 -6 7 -11 15 -11 8 0 15 5 15 10 0 5 6 5 13 -2 10 -8 17
-7 25 1 7 7 12 8 12 2 0 -6 7 -11 15 -11 8 0 15 5 15 10 0 5 6 5 13 -2 10 -8
17 -7 25 1 7 7 12 8 12 2 0 -6 7 -11 15 -11 8 0 15 5 15 10 0 5 6 5 13 -2 10
-8 17 -7 25 1 7 7 12 8 12 2 0 -6 7 -11 15 -11 8 0 15 5 15 11 0 6 5 5 12 -2
8 -8 15 -9 25 -1 7 7 13 7 13 2 0 -5 7 -10 15 -10 8 0 15 5 15 10 0 5 6 5 13
-2 10 -8 17 -7 25 1 7 7 12 8 12 2 0 -6 7 -11 15 -11 8 0 15 5 15 10 0 5 6 5
13 -2 10 -8 17 -7 25 1 7 7 12 8 12 2 0 -6 7 -11 15 -11 8 0 15 5 15 10 0 5 7
4 15 -3 12 -10 18 -10 30 0 12 10 15 10 15 0 0 -10 3 -10 15 0 8 7 15 8 15 3
0 -5 9 -9 20 -9 11 0 20 5 20 11 0 5 5 3 10 -5 9 -13 11 -13 20 0 6 9 10 10
10 3 0 -8 9 -9 29 -3 19 5 33 4 40 -3 8 -8 11 -7 11 4 0 12 2 12 9 0 8 -12 12
-12 25 -2 12 11 16 11 16 1 0 -10 3 -10 15 0 8 7 15 8 15 3 0 -5 9 -9 20 -9
11 0 20 5 20 11 0 5 5 3 10 -5 9 -13 11 -13 20 0 6 9 10 10 10 3 0 -8 9 -9 29
-3 19 5 33 4 40 -3 8 -8 11 -7 11 3 0 13 2 13 9 1 8 -12 12 -12 25 -2 12 11
16 11 16 1 0 -10 3 -10 15 0 8 7 15 8 15 3 0 -5 9 -9 20 -9 11 0 20 5 20 11 0
5 5 3 10 -5 9 -13 11 -13 20 0 5 9 10 10 10 3 0 -12 17 -12 38 0 7 5 12 3 12
-4 0 -8 4 -8 15 1 12 10 15 10 15 0 0 -9 3 -10 13 -1 11 8 19 5 35 -14 12 -14
22 -31 22 -38 0 -16 53 -77 66 -77 5 0 15 -9 22 -20 7 -12 17 -18 22 -15 4 3
14 0 22 -7 16 -15 31 -20 75 -22 17 0 35 -4 39 -8 4 -4 13 -3 20 3 8 6 21 9
29 5 8 -3 15 -1 15 5 0 6 4 8 9 4 5 -3 12 -1 16 5 4 6 10 8 15 5 4 -3 11 2 14
11 4 9 9 14 12 11 4 -3 13 1 21 9 8 8 19 11 25 8 7 -4 8 -2 4 4 -4 7 -2 12 4
12 6 0 8 5 5 10 -5 9 6 14 26 12 3 0 11 8 18 20 10 16 10 19 -1 12 -10 -6 -11
-5 -1 8 7 8 9 19 5 23 -4 5 -1 5 6 1 11 -7 13 -3 16 37 1 6 6 15 11 19 6 5 5
8 -3 8 -9 0 -10 5 -3 19 6 10 7 21 4 25 -11 11 -12 36 -1 36 7 0 6 5 -1 14 -9
11 -9 15 1 19 11 4 10 6 0 6 -7 1 -11 5 -7 10 3 5 -1 15 -8 23 -8 7 -13 22
-11 31 2 13 -2 17 -13 13 -11 -4 -13 -2 -9 9 3 9 0 15 -9 15 -7 0 -17 5 -21
12 -5 7 -2 9 7 4 8 -4 5 0 -5 8 -11 9 -24 16 -29 16 -4 0 -5 5 -2 10 3 6 -1
10 -9 10 -9 0 -16 5 -16 11 0 5 -4 8 -9 5 -5 -3 -12 1 -15 10 -3 8 -10 13 -15
10 -5 -4 -21 -2 -35 4 -14 5 -26 6 -26 2z m20 -154 c0 -4 8 -8 17 -8 9 0 14
-3 10 -6 -9 -9 25 -44 36 -37 6 3 7 1 3 -5 -4 -7 -3 -12 3 -12 5 0 9 -9 8 -20
-1 -11 -5 -20 -10 -20 -4 0 -5 -6 0 -12 12 -21 12 -38 0 -38 -7 0 -5 -5 3 -10
13 -8 12 -10 -3 -10 -10 0 -17 -3 -15 -7 2 -5 -12 -24 -31 -43 -18 -19 -30
-28 -25 -20 6 12 5 13 -8 3 -8 -7 -18 -10 -21 -6 -4 3 -7 2 -7 -4 0 -20 -74 9
-99 39 -13 15 -27 25 -32 22 -8 -4 -12 17 -8 42 0 4 -5 11 -13 15 -10 7 -10 9
0 9 9 0 10 5 3 18 -7 13 -6 23 1 30 7 7 8 12 3 12 -4 0 11 17 34 39 38 35 46
38 96 38 30 -1 55 -5 55 -9z m-945 -578 c3 6 12 7 18 3 7 -4 18 -8 26 -10 8
-1 18 -9 23 -17 5 -9 16 -16 24 -16 8 0 12 -5 9 -10 -3 -6 0 -12 7 -15 17 -7
22 -51 7 -60 -6 -5 -4 -16 6 -32 10 -15 12 -22 4 -18 -9 6 -11 3 -6 -9 4 -10
3 -15 -3 -11 -6 3 -10 1 -10 -6 0 -16 -61 -70 -71 -63 -5 3 -9 1 -9 -3 0 -18
-74 0 -97 23 -13 13 -28 24 -34 24 -6 0 -8 4 -5 9 3 4 -3 19 -14 31 -11 13
-17 26 -13 29 12 9 15 53 3 46 -6 -3 -7 1 -4 9 3 9 11 16 17 16 6 0 8 3 4 6
-8 8 52 66 63 59 4 -3 11 2 14 11 5 13 9 14 20 5 10 -8 16 -9 21 -1z m-244
-257 c13 -16 12 -17 -3 -4 -17 13 -22 21 -14 21 2 0 10 -8 17 -17z"/>
<path d="M720 2570 c13 -8 12 -10 -3 -10 -15 0 -16 -3 -7 -20 8 -15 8 -20 -2
-20 -9 0 -9 -3 2 -10 8 -5 10 -10 4 -10 -8 0 -9 -11 -4 -35 5 -24 4 -35 -4
-35 -6 0 -4 -5 4 -10 8 -5 10 -10 5 -10 -7 0 -9 -22 -5 -60 4 -38 2 -60 -5
-60 -5 0 -3 -5 5 -10 8 -5 10 -10 5 -10 -6 0 -11 -9 -11 -20 0 -11 4 -20 8
-20 4 0 5 -7 2 -15 -4 -9 0 -15 7 -15 12 0 12 -2 1 -9 -10 -6 -8 -10 8 -14 14
-4 19 -10 14 -18 -4 -7 1 -18 11 -26 12 -8 14 -13 5 -13 -7 0 1 -14 19 -30 17
-17 31 -35 31 -41 0 -5 4 -8 9 -4 5 3 12 -4 16 -14 4 -13 11 -18 22 -14 11 4
14 2 9 -5 -4 -7 3 -17 18 -24 14 -6 26 -15 26 -19 0 -4 9 -6 20 -4 11 2 20 0
20 -4 0 -5 9 -11 20 -14 11 -3 20 -1 20 5 0 5 7 2 16 -6 18 -18 39 -22 28 -4
-5 7 -3 8 7 2 20 -12 239 -11 239 1 0 5 5 2 11 -8 7 -12 15 -15 22 -9 7 5 56
8 110 8 60 -1 97 2 97 9 0 5 5 2 11 -8 6 -10 15 -14 22 -10 7 4 48 8 92 9 48
0 79 4 78 10 -1 6 14 9 33 8 19 -2 34 1 34 6 0 6 7 10 15 10 7 0 19 8 24 18 6
9 11 13 11 9 0 -4 14 6 30 23 17 17 30 27 30 23 1 -4 7 3 15 17 7 14 17 24 22
23 4 -1 7 5 5 14 -2 8 1 12 7 8 6 -3 11 1 11 9 0 9 5 16 11 16 5 0 8 4 4 9 -3
5 1 16 9 24 8 8 12 17 9 21 -4 3 -1 6 6 6 8 0 11 7 7 15 -3 8 0 15 7 15 8 0 6
4 -3 10 -12 8 -12 10 -1 10 8 0 11 3 8 7 -4 3 -2 13 5 20 8 10 8 17 1 21 -13
9 -13 42 0 42 5 0 4 7 -3 15 -7 8 -16 13 -20 10 -5 -3 -10 1 -13 7 -3 10 -7
10 -19 0 -11 -9 -17 -9 -20 -2 -2 8 -11 8 -30 1 -15 -6 -29 -7 -32 -3 -5 9
-68 8 -82 -1 -6 -3 -16 -2 -24 3 -8 5 -21 5 -31 -1 -10 -5 -20 -5 -23 -1 -5 9
-67 9 -82 -1 -6 -3 -16 -2 -24 3 -8 5 -21 5 -31 -1 -10 -5 -20 -5 -23 -1 -5 9
-67 9 -82 -1 -6 -3 -16 -2 -24 3 -8 5 -21 5 -31 -1 -10 -5 -20 -5 -23 -1 -6 9
-73 8 -82 -1 -4 -3 -15 -2 -25 3 -21 12 -41 10 -51 -5 -5 -7 -11 -6 -15 1 -5
6 -16 10 -25 8 -10 -1 -18 1 -18 6 0 4 -18 7 -41 6 -22 -1 -43 2 -46 7 -3 4
-11 6 -19 3 -8 -3 -14 -2 -14 3 0 4 -12 6 -26 3 -17 -3 -25 -1 -21 5 4 6 -4
11 -19 11 -15 0 -30 5 -34 12 -4 7 -15 10 -24 7 -9 -4 -15 -2 -13 5 1 6 -12
15 -29 19 -17 5 -37 16 -44 24 -7 8 -19 15 -27 15 -8 0 -11 5 -7 12 4 7 3 8
-4 4 -6 -4 -19 2 -29 13 -9 11 -19 18 -22 17 -3 -2 -12 2 -19 10 -7 8 -9 14
-5 14 12 0 -20 20 -32 20 -5 0 -3 -5 5 -10z"/>
</g>
</svg>
