<?xml version="1.0" standalone="no"?>
<!DOCTYPE svg PUBLIC "-//W3C//DTD SVG 20010904//EN"
 "http://www.w3.org/TR/2001/REC-SVG-20010904/DTD/svg10.dtd">
<svg version="1.0" xmlns="http://www.w3.org/2000/svg"
 width="680.000000pt" height="680.000000pt" viewBox="0 0 680.000000 680.000000"
 preserveAspectRatio="xMidYMid meet">
<metadata>
Created by potrace 1.14, written by Peter Selinger 2001-2017
</metadata>
<g transform="translate(0.000000,680.000000) scale(0.100000,-0.100000)"
fill="#000000" stroke="none">
<path d="M4705 6229 c-309 -24 -571 -132 -783 -322 -243 -218 -378 -489 -422
-847 -38 -315 33 -656 195 -929 99 -165 308 -357 494 -451 258 -130 611 -168
921 -101 151 33 331 102 393 151 l26 21 -56 162 c-31 89 -60 167 -64 172 -5 7
-48 -8 -121 -45 -137 -66 -238 -96 -382 -111 -183 -20 -358 9 -501 82 -326
165 -500 544 -456 996 15 150 45 261 101 377 115 236 295 383 551 453 89 24
336 24 432 0 102 -25 205 -72 272 -122 33 -25 62 -45 65 -45 3 0 46 81 95 180
l90 180 -25 17 c-125 90 -344 162 -559 183 -112 11 -118 11 -266 -1z"/>
<path d="M2128 6033 c-294 -611 -1168 -2447 -1168 -2454 0 -5 99 -8 226 -7
l226 3 108 250 109 250 598 0 597 0 110 -252 111 -253 233 0 c197 0 233 2 230
14 -2 8 -284 600 -628 1315 -562 1170 -627 1300 -648 1301 -21 0 -34 -21 -104
-167z m182 -788 c35 -82 125 -291 201 -463 77 -172 139 -317 139 -322 0 -6
-152 -10 -425 -10 -234 0 -425 2 -425 4 0 3 54 125 121 273 110 243 241 536
291 653 23 54 16 63 98 -135z"/>
<path d="M1735 3320 c-326 -43 -563 -237 -620 -507 -17 -81 -19 -265 -4 -349
34 -188 162 -369 344 -487 39 -24 126 -73 195 -107 183 -91 348 -187 402 -233
211 -177 189 -470 -42 -579 -195 -92 -463 -46 -712 123 l-58 39 -14 -23 c-32
-51 -176 -310 -176 -317 0 -14 97 -80 167 -114 345 -168 742 -177 1038 -23
140 73 264 214 322 369 46 120 55 336 19 450 -50 158 -175 317 -336 425 -25
17 -130 79 -235 138 -409 231 -491 305 -524 467 -15 71 0 164 35 225 27 46 83
89 154 118 67 26 228 32 323 11 88 -20 219 -80 271 -126 20 -18 38 -31 40 -29
12 15 186 320 186 326 0 9 -127 92 -185 121 -150 74 -390 108 -590 82z"/>
<path d="M3326 3058 c-26 -128 -146 -710 -266 -1294 -121 -583 -220 -1068
-220 -1077 0 -15 20 -17 199 -17 198 0 199 0 204 23 3 12 71 353 151 757 80
404 150 748 154 763 7 26 16 10 91 -160 122 -279 693 -1378 715 -1378 13 0
100 158 336 613 248 479 332 650 381 779 46 122 65 161 70 147 4 -10 38 -158
74 -329 36 -170 110 -512 163 -760 l98 -450 197 -3 c194 -2 197 -2 197 18 0
12 -110 535 -245 1163 -135 628 -260 1208 -277 1290 -30 138 -33 147 -55 147
-21 0 -61 -77 -387 -727 -199 -401 -403 -818 -451 -928 -49 -110 -91 -204 -95
-208 -4 -4 -49 86 -100 200 -51 114 -260 535 -463 936 -353 696 -370 727 -396
727 l-28 0 -47 -232z"/>
</g>
</svg>
